<svg xmlns="http://www.w3.org/2000/svg" viewBox="0 0 89.3 58.9"><path d="M0 41.6c0 9.6 7.8 17.3 17.3 17.3 8.6 0 15.7-6.3 17.1-14.5l6.9.5h.6c2.5 0 4.5-2 4.5-4.5 0-1-.4-2-1-2.8l16.8-17.9 2.2 6.1c-5.8 2.8-9.9 8.7-9.9 15.6v.5c-.9 0-1.6.7-1.6 1.6s.7 1.6 1.6 1.6h.4c1.7 7.9 8.6 13.8 17 13.8 9.6 0 17.3-7.8 17.3-17.3S81.5 24.2 72 24.2c-1.4 0-2.9.2-4.2.5L60.3 3.9C59.8 2.5 58 0 54.3 0h-4.4c-1 0-1.7.8-1.7 1.7 0 1 .8 1.7 1.7 1.7h4.4C56.4 3.4 57 5 57 5l4 11c-1 .7-4.7 3.3-9.1 5.6-6.4 3.4-11.4 4.9-14.2 4.2-1-.3-1.7-.8-2.1-1.7l-4-8.7h4.3c.9 0 1.7-.8 1.7-1.7 0-1-.8-1.7-1.7-1.7H23.3v3.5h4.3l.8 1.7-2.6 5.1-1.8-.9H3.8c-.5.1-.8.5-.8.9s.4.9.8.9h3.6l1.6 3c-2 1.1-3.7 2.6-5.1 4.3-.3-.2-.6-.3-1-.3-.9 0-1.6.7-1.6 1.6 0 .6.3 1.1.8 1.4C.8 35.7 0 38.6 0 41.6zm65.9-11.8l4.5 12.4c.3.7.9 1.1 1.6 1.1.2 0 .4 0 .6-.1.9-.3 1.4-1.3 1-2.2l-4.5-12.4c.9-.2 1.9-.3 2.8-.3 7.3 0 13.3 6 13.3 13.3 0 7.3-6 13.3-13.3 13.3-7.3 0-13.3-6-13.3-13.3.1-5.2 3-9.6 7.3-11.8zm-41-5.5l-.7 1.4c-2.1-.9-4.4-1.4-6.9-1.4-2.3 0-4.6.5-6.6 1.3l-1.2-2.2H23l1.9.9zm5.5-3l7.2 15.3-3.4.5c-1.1-4-3.5-7.5-6.9-9.8l3.1-6zm21.7 4.3L42.3 36h-.4c-.3 0-.6 0-.9.1l-3-6.5c.4 0 .8.1 1.1.1 3.9-.1 8.7-2 13-4.1zM4 41.6c0-3.4 1.3-6.5 3.3-8.8l9 9v.3c0 .9.7 1.6 1.6 1.6.4 0 .7-.1.9-.3h.8l10.7.8C29.1 50.3 23.7 55 17.2 55 10 54.9 4 48.9 4 41.6z"/></svg>