<svg id="Layer_1" xmlns="http://www.w3.org/2000/svg" viewBox="-173 380.4 876.6 141.6"><style>.st0{fill:#FFFFFF;stroke:#FFFFFF;stroke-miterlimit:10;} .st1{stroke:#000000;stroke-width:5;}</style><title>London Skyline</title><title>Layer 1</title><g id="layer11"><g id="g3909"><path id="path3094" class="st0" d="M204.5 490.5v-14.1s1.2-.2 1.9-.9v-37.4h-12.8v37.4c.6.8 1.9.9 1.9.9v13.9c2 1.9 6.9 1.4 9 .2z"/><path id="path3096" class="st0" d="M197.4 438.1v-19.6h5.1v19.6h-5.1z"/><path id="path3098" class="st0" d="M194.1 434.7v1.4h11.7v-1.4h-11.7z"/><path id="path3100" class="st0" d="M194.2 430.8v1.4h11.7v-1.4h-11.7z"/><path id="path3102" class="st0" d="M194.1 426.8v1.4h11.7v-1.4h-11.7z"/><path id="path3104" class="st0" d="M194.2 422.8v1.4h11.7v-1.4h-11.7z"/><path id="path3106" class="st0" d="M194.1 418.8v1.4h11.7v-1.4h-11.7z"/><path id="path3108" class="st0" d="M202.6 418.5s3.2-.1 3.8-.5v-1s-.2-.2-.8-.3c-.1 0 0-.2 0-.2h.5l.2-.2v-4h.3s.2-.1.3-.3v-5.2s-.3-.3-.7-.4v-3.6c-.4-.7-2.2-.9-3.4-1.1v-.3s1.1-.1 1.2-.3c0 0 .4-.3.4-.5v-2.4c-.1-.2-1.2-.7-2.2-.7h-4.7c-1 .1-2.1.5-2.2.7v2.4c0 .1.4.5.4.5.2.2 1.2.3 1.2.3v.3c-1.2.2-3 .4-3.4 1.1v3.6c-.4.1-.7.4-.7.4v5.2c.1.2.3.3.3.3h.3v4l.2.2h.5v.2c-.6.1-.8.3-.8.3v1c.6.4 3.8.5 3.8.5h5.5z"/><path id="path3110" class="st0" d="M194.5 434.7v-.3h-.7l-.1.4h-.8l-.2-.8v-.8l.1-.5h.8l.2.3v1.1h.9v.4l-.2.2z"/><path id="path3112" class="st0" d="M194.2 430.7v-.3h-.7l-.1.4h-.8l-.2-.8v-.8l.1-.5h.8l.2.3v1.1h.9v.4l-.2.2z"/><path id="path3114" class="st0" d="M194.4 426.8v-.3h-.7l-.1.4h-.8l-.2-.8v-.7l.1-.5h.8l.2.3v1.1h.9v.4l-.2.1z"/><path id="path3116" class="st0" d="M195.6 422.8v-.3h-.7l-.1.4h-.8l-.2-.8v-.7l.1-.5h.8l.2.3v1.1h.9v.4l-.2.1z"/><path id="path3118" class="st0" d="M205 428.7h-1s-1.2.8 0 2l1.3.1s1.1-1.3-.3-2.1z"/><path id="path3120" class="st0" d="M205.1 432.8h-1s-1.2.8 0 2l1.3.1s1-1.3-.3-2.1z"/><path id="path3122" class="st0" d="M205.1 424.9h-.8s-.9.9 0 2l1 .1s.9-1.3-.2-2.1z"/><path id="path3124" class="st0" d="M203.9 421.6h-.7s-.8.9 0 2l.9.1s.8-1.3-.2-2.1z"/><path id="path3126" class="st0" d="M196.3 425.2h-.9s-1 .8 0 2l1.1.1s.9-1.3-.2-2.1z"/><path id="path3128" class="st0" d="M196.6 429h-1s-1.2.9 0 2.2l1.3.1s1-1.4-.3-2.3z"/><path id="path3130" class="st0" d="M196.4 432.9h-.9s-1.1.8 0 2l1.2.1s.9-1.3-.3-2.1z"/><path id="path3132" class="st0" d="M198.1 387.3h3.7l-.1 1.4h-3.6v-1.4z"/><path id="path3134" class="st0" d="M201.6 390.1h-3.1v1.4h3l.1-1.4z"/><path id="path3136" class="st0" d="M198.7 393h2.6v1.5h-2.6V393z"/><path id="path3138" class="st0" d="M199.1 395.7h1.9v.8h-1.9v-.8z"/><path id="path3140" class="st0" d="M198.9 397.3l-.9-10 3.8.1-.9 9.9h-2z"/><path id="path3142" class="st0" d="M200.1 387.2v-6.8"/></g></g><g id="layer10"><path id="path3090" class="st0" d="M377.1 488c-.2.6-.9 1.4-1 1.5-5 4-18.3 4.7-25.6-.5-.3-.2-1.6-1.8-1.6-1.9-1.3-11.1-9.1-79.2 12.7-105.6-.2-.2 2.3-.2 2.3-.2 23.1 23.3 14.3 106.6 13.2 106.7z"/></g><g id="layer9"><path id="path3293" class="st0" d="M226.3 490.1v-2.3l.3-.3V480s-.4-.5-.3-.5v-.6h.4v-7l-.3-.2v-.3h.3l-.3-.4v-.4l-.5-.3v-.3l.4-.3v-.4l.3-.2v-1.7h-.3l-.1-.3v-.2l.2-.2h1.4v1.2h.3v.2h.6v-.2h.8v.3h.4v.2h.4v.2l.3.1v-.9l.2-.4.2-.2h1.8v.2h2.1v-.3h2v.3h5.2v-.3h2v.3h5.2v-.3h1.9v.3h5.1v-.3h2.3v.3h1.8v-.3h-.3v-.5h-.2v-.4h.6V463h-.4v-.9h.2v-7.7l-.4-.4v-.4l.6-.2v-1h-.2v-.3l.7-.4 1.1-.3h1.1v-2.9l-.4-.3v-.8h.4v-.2h.2v-.1h-.1l-.2-.2v-.2l.5-.3v-.6h.2c.4-3 2.1-8.7 7.4-10.6v-.4h.2v-.3s-.4 0-.5-.2c0-.1 0-.3.2-.4h.2v-.9h.1v-.5h.2v.4h.3v-.7h-.2v-.4h.4v-3.3l-.4-.3v-.3h.4v-1l.4.4v.5h.3v-1.9h-.4v-.3h.2v-1s.5-.8.9-.8v-.3l-.3-.1v-.1h.3v-.9h.2s-.2-.1-.2-.3v-.3l.2-.2h.1v-.2c-.9-.5-.2-1.3 0-1.2v-1.6l.2-.9.2.9v1.6c.2-.1.9.8 0 1.2v.2h.1l.2.2v.3c0 .1-.2.3-.2.3h.2v.8h.3v.1l-.3.1v.3c.3 0 .9.8.9.8v1h.2v.3h-.4v1.9h.3v-.5l.4-.4v1h.4v.3l-.4.3v3.3h.4v.4h-.2v.7h.3v-.4h.2v.5h.1v.9h.2c.3.1.2.3.2.4-.1.3-.5.2-.5.2v.3h.2v.4c5.3 1.9 7.1 7.6 7.4 10.6h.2v.6l.5.3v.2l-.2.2h-.2v.1h.2v.2h.4v.5l-.4.3v2.9h1.1l1.1.3.7.4v.3h-.2v1l.6.2v.4l-.4.4v7.7h.2v.9h-.4v3.2h.6v.4h-.2v.5h-.3v.2h2.6v-.4h2.3v.4h5.1v-.3h2v.4h5.3v-.4h2v.3h4.7v-.3h2.5v.3h10.1V465l-.3-.2v-1.2l.3-.1v-.1h-.3v-1.5h.9v-.6h.4l-.3-.4-.1-.2v-.4h.3v-.5h.1v-4.1l-.2-.1-.4-.2v-.6h.6v-.9h.2v-.6h.5v-.8h-.2v-.3h.2v-.3h.3v.3h.2v.3h-.2v.4h.2l.3-.4v-1.4h-.2v-.4h.3v-.5h.2v-.3h-.4v-.3h.2v-.3h.2v-.1h.2v-.6l.3-.4v-.8l.5-.8h.1s0-.5.3-.5v-.3c-.2 0-.3-.4 0-.5v-.3c-.3-.1-.3-.6.1-.7.5 0 .4.6.1.7v.3c.3.1.2.5 0 .5v.3c.2 0 .3.5.3.5h.1l.5.8v.8l.3.4v.6h.2v.1h.2v.3h.2v.3h-.2v.3h.2v.5h.3v.4h-.2v1.4l.3.4h.2v-.4h-.2v-.3h.2v-.3h.3v.3h.2v.3h-.2v.8h.5v.6h.2v.9h.6v.6l-.4.2-.2.1v4.1h.1v.5h.3v.4l-.1.2-.3.4h.4v.6h.9v1.5h-.3v.5l.3.1v1.2l-.3.2v1.5h1.2v-.3s-.2-.2-.2-.3v-.6s0-.2.2-.2v-1.3l.1-.1s-.1-.3.2-.3c0 0 .2 0 .2.3l.2.1v.3h-.3v.1h.2v1.2h-.2v3l.3.2v1h-.1v.6h-.2v5.5h.5v.9h.3v.6h-.2v.3h-.5v.9h.2v.6h-.2v.6h-.1v7.1h.3v.3h.2v.2h.2v2.4l-108.9.1z"/></g><g id="layer8"><g id="g3281"><g id="g3293"><path id="path3295" class="st0" d="M404.6 452.5c0 .4-.3.6-.8.6-.4 0-.8-.3-.8-.6 0-.4.3-.6.8-.6.5-.1.8.2.8.6z"/><path id="path3297" class="st0" d="M403.7 452v-2l.1 2h-.1z"/><path id="path3299" class="st0" d="M404.1 452.9c-.1.3.1 2.5.2 2.5 2.6.7 3 3 3 3h.7v1.3h-.7v9.9h-6.6v-9.8h-.7v-1.4h.7s.2-2.4 2.8-2.9c0 0 .3-2.2.3-2.5l.3-.1z"/></g><g id="g3301"><path id="path3303" class="st0" d="M393.7 448.9c0 .4-.3.6-.8.6s-.8-.3-.8-.6c0-.4.3-.6.8-.6s.8.2.8.6z"/><path id="path3305" class="st0" d="M392.9 448.4v-2l.1 2h-.1z"/><path id="path3307" class="st0" d="M393.2 449.3c-.1.3.1 2.5.2 2.5 2.6.7 3 3 3 3h.7v1.3h-.7v9.9h-6.6v-9.8h-.7v-1.4h.7s.2-2.4 2.8-2.9c0 0 .3-2.2.3-2.5l.3-.1z"/></g><path id="path3310" class="st0" d="M434 448.8c0 .4-.3.6-.8.6-.4 0-.8-.3-.8-.6 0-.4.3-.6.8-.6s.8.3.8.6z"/><path id="path3312" class="st0" d="M433.2 448.4v-2l.1 2h-.1z"/><g id="g3314"><path id="path3316" class="st0" d="M424.5 452.3c0 .3-.3.6-.7.6-.4 0-.7-.3-.7-.6s.3-.6.7-.6.7.2.7.6z"/><path id="path3318" class="st0" d="M423.7 451.8v-1.9l.1 1.9h-.1z"/><path id="path3321" class="st0" d="M424 452.7c-.1.3.1 2.3.2 2.3 2.5.6 2.9 2.7 2.9 2.7h.7v1.2h-.7v9.1h-6.4v-9h-.7v-1.3h.7s.2-2.2 2.7-2.7c0 0 .3-2 .3-2.3h.3z"/></g><path id="path3323" class="st0" d="M433.5 449.4c-.1.3.1 2.5.2 2.5 2.6.7 3 3 3 3h.7v1.3h-.7v9.9h-6.6v-9.8h-.7v-1.4h.7s.2-2.4 2.8-2.9c0 0 .3-2.2.3-2.5l.3-.1z"/><path id="path3325" class="st0" d="M443.3 466.4V465c-.2-.1-1.2-.2-1.2-.2v1.8l-1.1-.1v-1.7c-.7-.1-1-.1-1.6-.2v1.6l-1.2-.1v-1.5h-1.5v1.5h-3.2v-1.7h-2.4v1.6h-1.5v-1.6h-2.3v1.6h-1.5v-1.6h-2.4v1.6h-1.5v-1.6h-2.4v1.6H418v-1.6h-2.4v1.6h-1.5v-1.6h-2.4v1.6h-1.5v-1.6h-2.4v1.6h-1.5v-1.6h-2.4v1.6h-1.5v-1.6H400v1.6h-1.5v-1.6h-9l.1 26.5 44-.1s9-.1 9.5-1.2c.2-.4.2-23.2.2-23.2z"/><path id="path3056" class="st0" d="M386.8 496.1v-2.9s-.6-.1-.5-.3c0-.2.4-.1.4-.3.3-.8-.1-1.4-1-1.5-.9 0-1.3.6-1 1.5.1.3.4.1.4.3 0 .2-.5.3-.5.3V496.1h2.2z"/></g></g><g id="layer5"><g id="g3843"><path id="path3146" class="st0" d="M786 505.3s-26.4 1-27.6.1c-.1.1-2.4 2.4-3.4 4.4 0-.1-1.2-.1-1.2-.1s.9-2.9.7-3.7c-.1.1-4.5-1-5.8-1.1.1.1-1.2.2-1.7 4.3 0-.2-1.1 0-1.1 0s0-4.1-1.3-4.7c0 0-16-2.5-21.4-3.8 0 0-3.8 1.7-4.9 3.2l-.6-.3s3.1-3.7 3-4.9c-.1 0 .1-1.1-1.8-.9 0 0-4.5 3.2-5.1 4.1l-.5-.4s2.8-5 1.7-6.1c0 0-2.6-3.4-4.2-3.1.1-.1-6.8 2.3-6.8 2.3v-.4s3.2-2 3.1-2.1c0 0-3.4.8-3.4 1.1l-.1-.3 5.6-5c.5-.5 7.6-5.9 18-11 1-.5 14.6-8.7 41-8.8-.1 0 29.4-1.7 54.9 19.8 0 0 2 2.3 3.6 3.8.1.2-.2.1-.2.1s-4.5-2.3-5.3-.7c0 0-1.1 2.5-.1 4.5.9 1.9 2.8 4.8 2.8 4.8l-.2.1s-4-4.8-5.9-4.2c.2.1-2 .3 3 5.6l-.3.3s-4.5-3.8-6.3-3.6c-1.5.4-15.7 4.4-15.7 4.4s-1.2 2.9-.5 4.9c-.1 0-.7.3-.7.3s-1.9-4.2-2.5-4.2c-1.4.1-5.3 1.2-5.3 1.2s.7 3 1.3 3.8c-.8 0-.8.1-.8.1s-3.5-3.8-4-3.8z"/><path id="path3148" class="st0" d="M727.6 476.8l-5.7-22-.2-4.3 2 4.2 6.1 20.8-2.2 1.3z"/><path id="path3150" class="st0" d="M725 458.1l-.4-5.9 2 4.7 4.6 18.6-1.5.5-4.7-17.9z"/><path id="path3152" class="st0" d="M734.6 473.3l-3.7-19.4-.4-4.5 1.5 4.2 4.6 19-2 .7z"/><path id="path3154" class="st0" d="M743.6 471.1l-1.8-12.4.1-5.6 1.8 5.4 1.8 12.5-1.9.1z"/><path id="path3156" class="st0" d="M747.4 470l-1.6-16.1.1-4.6 1.3 5.1 1.8 15.5-1.6.1z"/><path id="path3158" class="st0" d="M763.6 468.7l.2-15.4.5-4.5.8 4.3.2 15.5-1.7.1z"/><path id="path3160" class="st0" d="M768.7 468.1l.2-8.5 1.2-6.2 1 6.6-.2 8.3-2.2-.2z"/><path id="path3162" class="st0" d="M780.1 468.9l1.5-14.9 1.1-4.6.3 5.3-1.5 14.5-1.4-.3z"/><path id="path3164" class="st0" d="M792.1 471.4l2.6-12.7 2-5.7-.5 6.4-2.2 12.8-1.9-.8z"/><path id="path3166" class="st0" d="M795.4 472.4l3.4-17.5.3-4.9-1.6 5.1-3.6 16.9 1.5.4z"/><path id="path3168" class="st0" d="M802.9 475.2l5.3-18.5 2-4.4-.4 5.5-4.7 18.7-2.2-1.3z"/></g></g><g id="layer7"><g id="g12775"><path id="path2236" class="st0" d="M533.1 445.9h.5l.4-2.5.2-.9h-.3v-.2h.4l.3-1.8.1-1 .1 1 .3 1.8h.3v.2h-.3l.8 5.1.1 35.5h-11v-35.5l.8-5.2h-.3v-.2h.3l.3-1.4.2-1.2.1 1.2.3 1.3h.3v.1h-.2l.3 1.1.8 2.4h.5l2.3-8.2 2.4 8.4z"/><path id="path7339" class="st0" d="M601.2 445.9h.7l.4-2.5.2-.9h-.3v-.2h.4l.3-1.8.1-1 .1 1 .3 1.8h.3v.2h-.3l.8 5.1.1 35.5h-11v-35.5l.8-5.2h-.3v-.2h.3l.3-1.4.2-1.2.1 1.2.3 1.3h.3v.1h-.2l.3 1.1.7 2.6h.6l2.3-8.3 2.2 8.3z"/><path id="path7342" class="st0" d="M593.3 453.5h-26.1v-.5s.2-1-.5-1c0 0-.6-.1-.5.8h-1.3v-.8s.9-1-.3-1.4c-.6.2-.6.8-.2 1.3.2.2.1.6.1.9h-1.3s0-.8-.3-.8c0 0-.8-.2-.6 1.2H536v3.9h58.7v-3.7l-1.4.1z"/><g id="g13443"><path id="path8345" class="st0" d="M525.9 457.4c-16.8 16.8-25.2 24.5-46.7 25.2 0 0-16.8 1-26.2-6.2"/><path id="path8336" class="st0" d="M525.7 456.5s-23.9 22.2-46.5 24.8c0 0-11.7 1-26.5-6.4"/><path id="path11254" class="st0" d="M519.5 461.8l-1.8 3.8"/><path id="path11256" class="st0" d="M516.8 463.5l3.6-.2"/><path id="path11258" class="st0" d="M517.3 463.6l-1.3 3.3.1-.1"/><path id="path11262" class="st0" d="M510.5 468.6l3.8-.3"/><path id="path11264" class="st0" d="M509.7 469l-3.5 5.6"/><path id="path11266" class="st0" d="M505.5 471.7l5.1.3"/><path id="path11268" class="st0" d="M504.9 471.9l-3.4 5.7"/><path id="path11270" class="st0" d="M501.1 473.9l4.5 1.7"/><path id="path11272" class="st0" d="M500.4 474.4l-3.6 5.3"/><path id="path11274" class="st0" d="M496.6 476.1l4.5 2"/><path id="path11276" class="st0" d="M496.1 476.5l-3.9 4.6"/><path id="path11278" class="st0" d="M492.1 478.1l4.1 1.8"/><path id="path11280" class="st0" d="M490.7 478.7l-3 3.3"/><path id="path11282" class="st0" d="M487.4 479.7l3.5 1.5"/><path id="path11284" class="st0" d="M486.1 480.2c-.1 0-2.8 2.2-2.8 2.2"/><path id="path11286" class="st0" d="M483.1 480.7l3 1.4"/><path id="path11288" class="st0" d="M482.2 481.1l-2.2 1.6"/><path id="path11290" class="st0" d="M479.7 481.4l3.1 1.3"/><path id="path12267" class="st0" d="M519.2 463.9v21.3"/><path id="path12269" class="st0" d="M514.7 465.3v20.1"/><path id="path12271" class="st0" d="M510.1 468.1v17.2"/><path id="path12273" class="st0" d="M505.4 471.3v14"/><path id="path12275" class="st0" d="M500.7 473.9v11.4"/><path id="path12277" class="st0" d="M496.3 475.8v9.4l.1-.1"/><path id="path12279" class="st0" d="M491.7 477.8v7.5"/><path id="path12281" class="st0" d="M487.3 479.3v6"/><path id="path12283" class="st0" d="M482.6 480.6v4.8"/><path id="path12376" class="st0" d="M514.9 465.4l3.4-.2"/><path id="path12378" class="st0" d="M513.6 466.2l-2.8 5.1"/><path id="path7591" class="st0" d="M473.9 485.2V481"/><path id="path7593" class="st0" d="M469 485.2v-4.8"/><path id="path7595" class="st0" d="M464.5 485.1v-5.7"/><path id="path7597" class="st0" d="M459.9 484.9v-7h.1"/><path id="path7599" class="st0" d="M455.5 484.7v-8.6"/><path id="path8572" class="st0" d="M474 482.2l3.6-.8"/><path id="path8574" class="st0" d="M474.1 480.9l3.8 1.7"/><path id="path8576" class="st0" d="M469.2 481.9l5-.7"/><path id="path8578" class="st0" d="M469.3 480.4l4.7 2.3"/><path id="path8580" class="st0" d="M464.5 481.2l4.4-.7"/><path id="path8582" class="st0" d="M464.6 479.4l4.2 2.7"/><path id="path8584" class="st0" d="M460 480.1l4.4-.9"/><path id="path8586" class="st0" d="M460 477.9l4.4 3.3"/><path id="path8588" class="st0" d="M455.5 478.3l4.3-.4"/><path id="path8590" class="st0" d="M455.7 476.1l4.1 3.8"/></g><g id="g12056"><g id="g11860"><path id="path11862" class="st0" d="M603.2 457.5c16.8 16.8 25.2 24.5 46.7 25.2 0 0 16.8 1 26.2-6.2"/><path id="path11864" class="st0" d="M603.4 456.6s23.9 22.2 46.5 24.8c0 0 11.7 1 26.5-6.4"/><path id="path11866" class="st0" d="M609.6 461.9l1.8 3.8"/><path id="path11868" class="st0" d="M612.3 463.6l-3.6-.2"/><path id="path11870" class="st0" d="M611.8 463.7l1.3 3.3-.1-.1"/><path id="path11872" class="st0" d="M618.6 468.7l-3.8-.3"/><path id="path11874" class="st0" d="M619.4 469.1l3.5 5.6"/><path id="path11876" class="st0" d="M623.6 471.8l-5.1.3"/><path id="path11878" class="st0" d="M624.2 472l3.4 5.7"/><path id="path11880" class="st0" d="M628 474l-4.5 1.7"/><path id="path11882" class="st0" d="M628.8 474.5l3.6 5.3"/><path id="path11884" class="st0" d="M632.6 476.2l-4.5 2"/><path id="path11886" class="st0" d="M633 476.6l3.9 4.6"/><path id="path11888" class="st0" d="M637 478.2l-4.1 1.8"/><path id="path11890" class="st0" d="M638.4 478.8l3 3.3"/><path id="path11892" class="st0" d="M641.8 479.8l-3.5 1.5"/><path id="path11894" class="st0" d="M643 480.3c.1 0 2.8 2.2 2.8 2.2"/><path id="path11896" class="st0" d="M646 480.8l-3 1.4"/><path id="path11898" class="st0" d="M646.9 481.2l2.2 1.6"/><path id="path11900" class="st0" d="M649.4 481.5l-3.1 1.3"/><path id="path11902" class="st0" d="M609.9 464v21.3"/><path id="path11904" class="st0" d="M614.5 465.4v20.1"/><path id="path11906" class="st0" d="M619 468.2v17.2"/><path id="path11908" class="st0" d="M623.7 471.4v14"/><path id="path11910" class="st0" d="M628.4 474v11.4"/><path id="path11912" class="st0" d="M632.8 475.9v9.4l-.1-.1"/><path id="path11914" class="st0" d="M637.4 477.9v7.5"/><path id="path11916" class="st0" d="M641.8 479.4v6"/><path id="path11918" class="st0" d="M646.5 480.7v4.8"/><path id="path11920" class="st0" d="M614.2 465.5l-3.4-.2"/><path id="path11922" class="st0" d="M615.5 466.3l2.8 5.1"/><path id="path11924" class="st0" d="M655.2 485.3v-4.2"/><path id="path11926" class="st0" d="M660.1 485.3v-4.8"/><path id="path11928" class="st0" d="M664.6 485.2v-5.8"/><path id="path11930" class="st0" d="M669.2 485v-7h-.1"/><path id="path11932" class="st0" d="M673.6 484.8v-8.6"/><path id="path11934" class="st0" d="M655.1 482.3l-3.6-.8"/><path id="path11936" class="st0" d="M655.1 481l-3.8 1.7"/><path id="path11938" class="st0" d="M659.9 482l-5-.7"/><path id="path11940" class="st0" d="M659.8 480.5l-4.7 2.3"/><path id="path11942" class="st0" d="M664.6 481.3l-4.4-.7"/><path id="path11944" class="st0" d="M664.5 479.5l-4.2 2.7"/><path id="path11946" class="st0" d="M669.1 480.2l-4.4-.9"/><path id="path11948" class="st0" d="M669.1 478l-4.4 3.3"/><path id="path11950" class="st0" d="M673.6 478.4l-4.3-.4"/><path id="path11952" class="st0" d="M673.5 476.2l-4.1 3.8"/></g><path id="path11954" class="st0" d="M682.8 475l15.3 9.2"/><path id="path11956" class="st0" d="M682.1 475.5l14.5 9"/></g><path id="path2241" class="st0" d="M479.7 485.6v-2.9s-.6-.1-.5-.3c0-.2.4-.1.5-.3.3-.8-.2-1.5-1-1.5-.9 0-1.3.6-1 1.5.1.3.4.1.5.3 0 .2-.5.3-.5.3V485.6h2z"/><path id="path2249" class="st0" d="M651.5 485.6v-2.9s-.6-.1-.5-.3c0-.2.4-.1.5-.3.3-.8-.2-1.5-1-1.5-.9 0-1.3.6-1 1.5.1.3.4.1.5.3 0 .2-.5.3-.5.3V485.6h2z"/><path id="path10593" class="st0" d="M445.8 485.7H522v-.4s-67.8-.1-76.2-.1v.5z"/><path id="path2253" class="st0" d="M445.8 483h76.3v1.4h-76.3V483z"/><g id="g2268"><path id="path2264" class="st0" d="M607.3 483.1h136.1v1.5H607.1l.2-1.5z"/><path id="path2266" class="st0" d="M743.2 485.3l-136.4-.1v.5h136.4v-.4z"/></g><path id="path2276" class="st0" d="M590 483.1h17.8v10.1h-17.9l.1-10.1z"/><path id="path2280" class="st0" d="M521.7 483.1h17.8v10.1h-17.9l.1-10.1z"/><g id="g4241"><path id="path2291" class="st0" d="M538 483.9l22.9-11.4.7 1.4-22.9 11.4-.7-1.4z"/><path id="path2296" class="st0" d="M538.1 490.7s13.9-11.5 23.2-16.2l.6-.3"/><path id="path3270" class="st0" d="M540.6 488.6l-2.2-3.9 4.2 1.6-1.4-2.8 4 .9-1.3-2.7 3.7.9-1.1-2.3 3.5.7-.9-1.9 2.9.4-.8-1.4 2.6.3-.7-1.2 2.3.1-.5-1 2.1.1-.8-1.5"/></g><g id="g4247"><path id="path4249" class="st0" d="M591.2 483.7l-22.9-11.4-.7 1.4 22.9 11.4.7-1.4z"/><path id="path4251" class="st0" d="M591.1 490.5s-13.9-11.5-23.2-16.2l-.6-.3"/><path id="path4253" class="st0" d="M588.6 488.4l2.2-3.9-4.2 1.6 1.4-2.8-4 .9 1.3-2.7-3.7.9 1.1-2.3-3.5.7.9-1.9-2.9.4.8-1.4-2.6.3.7-1.2-2.3.1.5-1-2.1.1.8-1.5"/></g><path id="path12772" class="st0" d="M449.3 463c.1 0 .1-.1.1-.2s-.1-.2-.2-.2-.2.1-.2.2.1.2.2.2v1.4h-.4v.3h.1v.7c-1 2.6-1.9 2.9-1.9 2.9h-1.1l-.5 1v3.6h-.6v.8h.6v8.4l-.7 1.7v8.6h9.2v-8.7l-.7-1.7v-8.3h.6v-.8h-.6v-3.6l-.5-1h-1s-.8-.5-1.9-3v-.7h.1v-.3h-.4l-.2-1.3z"/><path id="path12108" class="st0" d="M679.6 463c.1 0 .1-.1.1-.2s-.1-.2-.2-.2-.2.1-.2.2.1.2.2.2v1.4h-.4v.3h.1v.7c-1 2.6-1.9 2.9-1.9 2.9h-1.1l-.5 1v3.6h-.6v.8h.6v8.4l-.7 1.7v8.6h9.2v-8.7l-.7-1.7v-8.3h.6v-.8h-.6v-3.6l-.5-1h-1s-.8-.5-1.9-3v-.7h.1v-.3h-.4l-.2-1.3z"/></g></g><g id="layer4"><path id="path2912" class="st0" d="M168 491.1h11v-1.6h-1.1v-1.3h-1.3v-2.9l-.8-.4v-4.3l.7-.5v-.5l-.8-.5v-.7s0-.3-.2-.3c0 0 .2-.5-.2-.6l-.2-29.6s-.2-.2-.3-.2c.1 0 .3-2.5 1-3v-.1h-.1v-.2l.2-.1v-.1s-.7-.1-.8-.3c0 0-.3-1.4-1-1.5h-1c-.6.1-1 1.5-1 1.5-.1.3-.8.3-.8.3v.1l.2.1v.2h-.1v.1c.7.6 1 3 1 3-.1 0-.3.2-.3.2s-.3 29.6-.2 29.6c-.4.2-.2.6-.2.6-.3 0-.2.3-.2.3v.7l-.8.5v.5l.7.5v4.3l-.8.4v2.9h-1.3v1.3h-1.1v1.6h11"/><path id="path2914" class="st0" d="M172.7 442.4h-1s.3-.4.3-.6c.1-.2.4-.3.4-.4 0 .1.3-1.7.4-1.8s-.1-.1-.1-.1-.1.2-.2.2-.2-.5-.2-.5v-.6l.1-.1v-.2l.3-.1s.1 0 .2.1c0 0 .1-.1.2-.1s0-.4 0-.4h-.3s.2-.9.7-1v-.1h.2v.2s.2.1.3.3c0-.1.2.3.2.3h.1v.2l-.2.1-.1.1h-.1v.5l.2.1v.1h.3s.1.2.1.4.1.5.1.5l.1.3.1.3h.2l.1.1v.1l-.2.1-.5 2-.1-.1.5-2h-.2c-.1-.1-.3-.6-.3-.7h-.1v.2h.1v1.1l-.1.6h-.3s-.1.2 0 .3c0 0 .4 0 .4.4-.2 0-1.6.2-1.6.2z"/></g><g id="layer3"><g id="g3766"><path id="path2836" class="st0" d="M119.3 418.5c0 1.1-.9 2-2 2s-2-.9-2-2 .9-2 2-2c1.1.1 2 .9 2 2z"/><path id="path2838" class="st0" d="M111.6 420c0 1.1-.9 2-2 2s-2-.9-2-2 .9-2 2-2 2 .9 2 2z"/><path id="path2840" class="st0" d="M105.4 422.3c0 1.1-.9 2-2 2s-2-.9-2-2 .9-2 2-2c1.1.1 2 .9 2 2z"/><path id="path2842" class="st0" d="M99.7 425.9c0 1.1-.9 2-2 2s-2-.9-2-2 .9-2 2-2c1.1.1 2 .9 2 2z"/><path id="path2844" class="st0" d="M95 430.4c0 1.1-.9 2-2 2s-2-.9-2-2 .9-2 2-2 2 .9 2 2z"/><path id="path2846" class="st0" d="M91.2 435.6c0 1.1-.9 2-2 2s-2-.9-2-2 .9-2 2-2 2 1 2 2z"/><path id="path2848" class="st0" d="M88.3 441.7c0 1.1-.9 2-2 2s-2-.9-2-2 .9-2 2-2c1.1.1 2 .9 2 2z"/><path id="path2850" class="st0" d="M86.8 448.1c0 1.1-.9 2-2 2s-2-.9-2-2 .9-2 2-2c1.1.1 2 1 2 2z"/><path id="path2852" class="st0" d="M86.4 454.7c0 1.1-.9 2-2 2s-2-.9-2-2 .9-2 2-2 2 .9 2 2z"/><path id="path2854" class="st0" d="M87.5 461.4c0 1.1-.9 2-2 2s-2-.9-2-2 .9-2 2-2 2 .9 2 2z"/><path id="path2856" class="st0" d="M89.6 467.6c0 1.1-.9 2-2 2s-2-.9-2-2 .9-2 2-2 2 1 2 2z"/><path id="path2858" class="st0" d="M93.3 473.8c0 1.1-.9 2-2 2s-2-.9-2-2 .9-2 2-2 2 .9 2 2z"/><path id="path2860" class="st0" d="M98.7 479.3c0 1.1-.9 2-2 2s-2-.9-2-2 .9-2 2-2 2 .9 2 2z"/><path id="path2862" class="st0" d="M104.8 483.5c0 1.1-.9 2-2 2s-2-.9-2-2 .9-2 2-2 2 .9 2 2z"/><path id="path2864" class="st0" d="M112.7 486.5c0 1.1-.9 2-2 2s-2-.9-2-2 .9-2 2-2 2 .9 2 2z"/><path id="path2866" class="st0" d="M121.8 487.2c0 1.1-.9 2-2 2s-2-.9-2-2 .9-2 2-2c1.1.1 2 .9 2 2z"/><path id="path2868" class="st0" d="M129.7 486.8c0 1.1-.9 2-2 2s-2-.9-2-2 .9-2 2-2 2 .9 2 2z"/><path id="path2870" class="st0" d="M138 484.1c0 1.1-.9 2-2 2s-2-.9-2-2 .9-2 2-2 2 .9 2 2z"/><path id="path2872" class="st0" d="M144.9 479.6c0 1.1-.9 2-2 2s-2-.9-2-2 .9-2 2-2c1.1.1 2 1 2 2z"/><path id="path2874" class="st0" d="M150.1 474.3c0 1.1-.9 2-2 2s-2-.9-2-2 .9-2 2-2 2 .9 2 2z"/><path id="path2876" class="st0" d="M153.9 468.3c0 1.1-.9 2-2 2s-2-.9-2-2 .9-2 2-2c1.1.1 2 .9 2 2z"/><path id="path2878" class="st0" d="M156.3 461.8c0 1.1-.9 2-2 2s-2-.9-2-2 .9-2 2-2 2 .9 2 2z"/><path id="path2880" class="st0" d="M157.5 455.3c0 1.1-.9 2-2 2s-2-.9-2-2 .9-2 2-2 2 .9 2 2z"/><path id="path2882" class="st0" d="M157.3 448.5c0 1.1-.9 2-2 2s-2-.9-2-2 .9-2 2-2c1.1.1 2 .9 2 2z"/><path id="path2884" class="st0" d="M155.7 441.7c0 1.1-.9 2-2 2s-2-.9-2-2 .9-2 2-2 2 .9 2 2z"/><path id="path2886" class="st0" d="M153 436c0 1.1-.9 2-2 2s-2-.9-2-2 .9-2 2-2c1.1.1 2 .9 2 2z"/><path id="path2888" class="st0" d="M148.9 430.4c0 1.1-.9 2-2 2s-2-.9-2-2 .9-2 2-2c1.1.1 2 .9 2 2z"/><path id="path2890" class="st0" d="M144.3 426c0 1.1-.9 2-2 2s-2-.9-2-2 .9-2 2-2 2 .9 2 2z"/><path id="path2892" class="st0" d="M138.6 422.4c0 1.1-.9 2-2 2s-2-.9-2-2 .9-2 2-2 2 .9 2 2z"/><path id="path2894" class="st0" d="M132.4 419.9c0 1.1-.9 2-2 2s-2-.9-2-2 .9-2 2-2 2 .9 2 2z"/><path id="path2896" class="st0" d="M126.1 418.6c0 1.1-.9 2-2 2s-2-.9-2-2 .9-2 2-2c1.1.1 2 1 2 2z"/><path id="path2898" class="st0" d="M148.4 452.7c0 15.6-13 28.3-28.9 28.3-16 0-28.9-12.7-28.9-28.3 0-15.6 13-28.3 28.9-28.3s28.9 12.6 28.9 28.3z"/><path id="path2900" class="st0" d="M153.1 452.9c0 17.9-14.9 32.4-33.2 32.4s-33.2-14.5-33.2-32.4 14.9-32.4 33.2-32.4c18.3-.1 33.2 14.4 33.2 32.4z"/><path id="path2902" class="st0" d="M108.9 426.3l-3-2.5.2 3.8-2.9-2.3.2 3.6-2.7-2.2.6 3.7-2.9-1.7 1 3.2-3.7-.9 1.6 3-3.4-.7 1.7 3-3.8-.5 2.3 2.9h-3.6l2.3 1.9-3.5.6 2.4 1.9-3.6 1.1 2.6 2-3.1 1.5 2.8 1.4-3.6 1.9 2.8.5-2.9 2.5 3.3.4-2.9 2.7 3.6.2-3.1 2.8 3.6-.1-2.8 2.6 4 .1-2.6 2.7 3.6-.4-2.5 3.5 3.9-1.2-2.3 4 3.8-1.6-1.4 4.7 3.8-2.1-1.1 4.7 3.9-2.4-.7 4.7 3.4-2.7-.3 4.9 3.4-3.3.6 4.8 3.1-3.4.9 4.8 2.7-3.9 1.4 4.5 2-4.2 2.2 4.5 1.4-4.5 2.2 4.2 1.3-4.7 2.9 3.9.6-4.6 3.3 3.5.1-4.8 3.5 3.2-.3-5.1 3.6 2.9-.8-4.6 3.4 2.5-.9-4.9 3.9 1.9-1.4-4.8 4 1.6-2.1-4.3 4.2 1.3-2.9-4.2 4.4.4-3.2-3.3 4-.2-3.3-2.9 4.2-1.1-3.8-2.5 4-1-3.7-1.9 3.7-1-4.1-1.4 3.6-2.2-4.5-.4 3.4-2.4h-3.7l3.6-2.5-4.7.1 3-3.1-4.3 1 2.9-3.2-4.2.4 1.9-3.7-4 1.5 1.5-4.3-3.5 2 1-4.4-3.5 2.5.2-4.7-2.9 2.9-.6-4.8-3.4 2.6-.7-4.3-2.6 3.3-.6-4-2.4 3.5-1.3-4-1.5 3.5-1.8-3.9-1.2 3.9-2.4-3.4-.3 3.7-2.9-3.1-.2 3.9-2.9-2.8-.5 3.8z"/><path id="path2904" class="st0" d="M122.1 451.9c0 1.2-1 2.2-2.2 2.2s-2.2-1-2.2-2.2 1-2.2 2.2-2.2 2.2 1 2.2 2.2z"/><path id="path2906" class="st0" d="M118.8 453.8h.7s-1 9.8-4.1 37.5l-3.6-.1"/><path id="path2908" class="st0" d="M120.3 453.8h-.7s1.5 11.7 4.6 37.6l3.3-.2"/></g></g><g id="layer2"><g id="g3522"><g id="g3172"><g id="g3174"><path id="path3176" class="st0" d="M62.5 479.5v-35.4h.7v-8.7h-1.3V434h-.6l-1.8-3v-2.7l-1.9-6.1v-1.1 1.1l-2.1 6.1v2.7l-1.8 3h-.6v1.4h-1.3v8.7h.7v35.4h10z"/><path id="path3178" class="st0" d="M60.2 439.5c0 1.7-1.4 3.1-3.1 3.1-1.7 0-3.1-1.4-3.1-3.1s1.4-3.1 3.1-3.1c1.7.1 3.1 1.4 3.1 3.1z"/></g><path id="path3180" class="st0" d="M41.3 463.5h16.6v16H41.3v-16z"/></g><path id="path3182" class="st0" d="M-147.3 432.6l-2.3 3.6-.1-11.8-1.5-2.3-1.9 2.2v54.6l19.3-7v7-54.4l-1.6-2.7-1.9 2.5v11.8l-2.3-3.6h-2.1v-3.4l-1.8-3-1.8 3v3.2l-2 .3z"/><path id="path3184" class="st0" d="M-55.7 473v-15.6l-1.9-5.4v-4.4s-3.2-7.9-3.4-13.4c-.1-.2-.1-.2-.1 0-.1 5.5-3.4 13.4-3.4 13.4v4.4l-1.9 4.3V473"/><path id="path3186" class="st0" d="M-83.5 491.3h-11.1v-35.2l1.4-3.3 1.1 3.2v3.3h6.1v-3.6l1.2-2.9 1.2 3 .1 35.5z"/><path id="path3188" class="st0" d="M-27.4 491.3h-11.1v-35.2l1.4-3.3 1.1 3.2v3.3h6.1v-3.6l1.2-2.9 1.2 3 .1 35.5z"/><g id="g3190"><path id="path3192" class="st0" d="M-143.7 491.3h-11.1v-35.2l1.4-3.3 1.1 3.2v3.3h6.1v-3.6l1.2-2.9 1.2 3 .1 35.5z"/><path id="path3194" class="st0" d="M-161.9 491.3H-173v-35.2l1.4-3.3 1.1 3.2v3.3h6.1v-3.6l1.2-2.9 1.2 3c.1 0 .1 35.5.1 35.5z"/><path id="path3196" class="st0" d="M-160.1 465.4v.3c.3.2.3.6.3.6v2.8h-.7v-2.8s0-.5.3-.6l.1-.3z"/><path id="path3198" class="st0" d="M-168.7 469.2h21l-.5 22h-20.7l.2-22z"/><path id="path3200" class="st0" d="M-156.3 465.4v.3c.3.2.3.6.3.6v2.8h-.7v-2.8s0-.5.3-.6l.1-.3z"/></g><g id="g3202"><path id="path3204" class="st0" d="M51 491.3H39.9v-35.2l1.4-3.3 1.1 3.2v3.3h6.1v-3.6l1.2-2.9 1.2 3 .1 35.5z"/><path id="path3206" class="st0" d="M32.8 491.3H21.7v-35.2l1.4-3.3 1.1 3.2v3.3h6.1v-3.6l1.2-2.9 1.2 3 .1 35.5z"/><path id="path3208" class="st0" d="M34.6 465.4v.3c.3.2.3.6.3.6v2.8h-.7v-2.8s0-.5.3-.6l.1-.3z"/><path id="path3210" class="st0" d="M26.3 469.2h20.5l-.5 22H26.2l.1-22z"/><path id="path3212" class="st0" d="M38.4 465.4v.3c.3.2.3.6.3.6v2.8H38v-2.8s0-.5.3-.6l.1-.3z"/></g><g id="g3214"><path id="path3216" class="st0" d="M-140.5 468.3v.3c.3.2.3.6.3.6v2.8h-.7v-2.8s0-.5.3-.6l.1-.3z"/><path id="path3218" class="st0" d="M-136.3 468.3v.3c.3.2.3.6.3.6v2.8h-.7v-2.8s0-.5.3-.6l.1-.3z"/><path id="path3220" class="st0" d="M-132 468.3v.3c.3.2.3.6.3.6v2.8h-.7v-2.8s0-.5.3-.6l.1-.3z"/><path id="path3222" class="st0" d="M-127.7 468.3v.3c.3.2.3.6.3.6v2.8h-.7v-2.8s0-.5.3-.6l.1-.3z"/><path id="path3224" class="st0" d="M-123.4 468.4v.3c.3.2.3.6.3.6v2.8h-.7v-2.8s0-.5.3-.6l.1-.3z"/><path id="path3226" class="st0" d="M-119.2 468.4v.3c.3.2.3.6.3.6v2.8h-.7v-2.8s0-.5.3-.6l.1-.3z"/><path id="path3228" class="st0" d="M-114.9 468.4v.3c.3.2.3.6.3.6v2.8h-.7v-2.8s0-.5.3-.6l.1-.3z"/><path id="path3230" class="st0" d="M-110.7 468.4v.3c.3.2.3.6.3.6v2.8h-.7v-2.8s0-.5.3-.6l.1-.3z"/><path id="path3232" class="st0" d="M-106.2 468.2v.3c.3.2.3.6.3.6v2.8h-.7v-2.8s0-.5.3-.6l.1-.3z"/><path id="path3234" class="st0" d="M-101.9 468.2v.3c.3.2.3.6.3.6v2.8h-.7v-2.8s0-.5.3-.6l.1-.3z"/><path id="path3236" class="st0" d="M-97.7 468.2v.3c.3.2.3.6.3.6v2.8h-.7v-2.8s0-.5.3-.6l.1-.3z"/><path id="path3238" class="st0" d="M-151.7 471.9h65v19.3H-152l.3-19.3z"/></g><g id="g3240"><path id="path3242" class="st0" d="M-24.5 468.3v.3c.3.2.3.6.3.6v2.8h-.7v-2.8s0-.5.3-.6l.1-.3z"/><path id="path3244" class="st0" d="M-20.3 468.3v.3c.3.2.3.6.3.6v2.8h-.7v-2.8s0-.5.3-.6l.1-.3z"/><path id="path3246" class="st0" d="M-15.9 468.3v.3c.3.2.3.6.3.6v2.8h-.7v-2.8s0-.5.3-.6l.1-.3z"/><path id="path3248" class="st0" d="M-11.6 468.3v.3c.3.2.3.6.3.6v2.8h-.7v-2.8s0-.5.3-.6l.1-.3z"/><path id="path3250" class="st0" d="M-7.3 468.4v.3c.3.2.3.6.3.6v2.8h-.7v-2.8s0-.5.3-.6l.1-.3z"/><path id="path3252" class="st0" d="M-3 468.4v.3c.3.2.3.6.3.6v2.8h-.7v-2.8s0-.5.3-.6l.1-.3z"/><path id="path3254" class="st0" d="M1.4 468.4v.3c.3.2.3.6.3.6v2.8H1v-2.8s0-.5.3-.6l.1-.3z"/><path id="path3256" class="st0" d="M5.6 468.4v.3c.3.2.3.6.3.6v2.8h-.7v-2.8s0-.5.3-.6l.1-.3z"/><path id="path3258" class="st0" d="M10.2 468.2v.3c.3.2.3.6.3.6v2.8h-.7v-2.8s0-.5.3-.6l.1-.3z"/><path id="path3260" class="st0" d="M14.6 468.2v.3c.3.2.3.6.3.6v2.8h-.7v-2.8s0-.5.3-.6l.1-.3z"/><path id="path3262" class="st0" d="M18.8 468.2v.3c.3.2.3.6.3.6v2.8h-.7v-2.8s0-.5.3-.6l.1-.3z"/><path id="path3264" class="st0" d="M-34.9 471.9H29v19.3h-64.2l.3-19.3z"/></g><g id="g3266"><path id="path3268" class="st0" d="M-80.9 465.7v.3c.3.2.3.6.3.6v2.8h-.7v-2.8s0-.5.3-.6l.1-.3z"/><path id="path3271" class="st0" d="M-76.5 465.7v.3c.3.2.3.6.3.6v2.8h-.7v-2.8s0-.5.3-.6l.1-.3z"/><path id="path3273" class="st0" d="M-72.1 465.7v.3c.3.2.3.6.3.6v2.8h-.7v-2.8s0-.5.3-.6l.1-.3z"/><path id="path3275" class="st0" d="M-67.7 465.7v.3c.3.2.3.6.3.6v2.8h-.7v-2.8s0-.5.3-.6l.1-.3z"/><path id="path3277" class="st0" d="M-63.4 465.7v.3c.3.2.3.6.3.6v2.8h-.7v-2.8s0-.5.3-.6l.1-.3z"/><path id="path3279" class="st0" d="M-59 465.7v.3c.3.2.3.6.3.6v2.8h-.7v-2.8s0-.5.3-.6l.1-.3z"/><path id="path3281" class="st0" d="M-54.8 465.7v.3c.3.2.3.6.3.6v2.8h-.7v-2.8s0-.5.3-.6l.1-.3z"/><path id="path3283" class="st0" d="M-50.4 465.7v.3c.3.2.3.6.3.6v2.8h-.7v-2.8s0-.5.3-.6l.1-.3z"/><path id="path3285" class="st0" d="M-46 465.7v.3c.3.2.3.6.3.6v2.8h-.7v-2.8s0-.5.3-.6l.1-.3z"/><path id="path3287" class="st0" d="M-41.6 465.7v.3c.3.2.3.6.3.6v2.8h-.7v-2.8s0-.5.3-.6l.1-.3z"/><path id="path3289" class="st0" d="M-91.2 469.4h60.4v21.8h-60.7l.3-21.8z"/></g></g></g><path id="svg_1" class="st0" d="M-171.6 492h998v30h-998z"/><path id="svg_2" class="st0" d="M-14.6 484h2z"/><path id="svg_3" class="st0" d="M109.4 464h38z"/><path id="svg_5" class="st0" d="M42.4 481h19v18h-19z"/><path id="svg_7" class="st0" d="M56.4 486h1z"/></svg>