<svg xmlns="http://www.w3.org/2000/svg" viewBox="0 0 90.3 82.7"><path d="M71.7 72.9c-.9 0-1.8-.1-2.7-.2-7.9-1.2-14.9-6.1-20.1-14.3-.9-1.4-.5-3.2.9-4.1 1.4-.9 3.2-.5 4.1.9 3 4.7 8.2 10.5 15.9 11.6 4.3.6 8-1 9.8-4.3 1.7-3.1 1.3-6.9-1.2-9.8-1.1-1.3-.9-3.2.4-4.2 1.3-1.1 3.2-.9 4.2.4 4 4.8 4.7 11.3 1.8 16.6-2.5 4.6-7.4 7.4-13.1 7.4zM45.4 82.7H45c-1.6-.2-2.8-1.7-2.6-3.4.4-3.2-.1-8.5-.8-13.2-3.8 6.3-8.9 10.7-15.1 12.7-6.5 2.1-13 .3-16.9-4.6-3.8-4.7-4.1-11.3-1-16.7.8-1.4 2.7-1.9 4.1-1.1 1.4.8 1.9 2.7 1.1 4.1-1.9 3.3-1.8 7.1.5 9.9 2.4 3 6.3 3.9 10.4 2.6C34 70 38.3 60.4 40 55c.4-1.3 1.6-2.1 3-2.1 1.4.1 2.5 1 2.8 2.3.2.7 3.7 16.6 2.6 24.8-.3 1.6-1.5 2.7-3 2.7z"/><path d="M11.2 62.1c-.3 0-.6-.1-.9-.2-6-2-10-7.1-10.3-13.2-.3-6.3 3.4-11.9 9.7-14.6 8.5-3.7 18.8-2.3 28.9 3.9 1.4.9 1.9 2.7 1 4.1-.9 1.4-2.7 1.9-4.1 1-4.9-3-14.4-7.4-23.4-3.5-4 1.7-6.3 5-6.1 8.8.2 3.6 2.5 6.5 6.1 7.7 1.6.5 2.4 2.2 1.9 3.8-.4 1.4-1.5 2.2-2.8 2.2z"/><path d="M36.7 43.3c-.4 0-.9-.1-1.3-.3-10.4-5-17-12.6-18.6-21.5C15.7 15 18.3 9 23.6 5.8c5.1-3 11.5-2.5 16.3 1.3 1.3 1 1.5 2.9.5 4.2-1 1.3-2.9 1.5-4.2.5-2.9-2.3-6.5-2.6-9.5-.9-3.1 1.9-4.6 5.4-3.9 9.5C24.4 29.9 33 35.2 38 37.6c1.5.7 2.1 2.5 1.4 4-.5 1.1-1.6 1.7-2.7 1.7z"/><path d="M52.2 39.8c-.7 0-1.3-.2-1.9-.7-1.3-1.1-1.5-2.9-.4-4.2 3.5-4.3 9-12.8 6.5-21.9-1.1-4-3.9-6.6-7.6-7-3.4-.3-6.6 1.5-8.2 4.8-.7 1.5-2.5 2.1-4 1.4-1.5-.7-2.1-2.5-1.4-4C37.9 2.7 43.5-.5 49.3.1c6.1.6 11 5 12.8 11.4 2.4 8.7-.4 18.4-7.7 27.3-.5.7-1.3 1-2.2 1z"/><path d="M80.9 53.7c-1.1 0-2.1-.6-2.7-1.6-.8-1.5-.2-3.3 1.3-4.1 3.4-1.8 5.2-5.1 4.8-8.7-.5-3.8-3.3-6.6-7.5-7.7-9.5-2.3-18.2 3.6-22.5 7.3-1.3 1.1-3.1 1-4.2-.3s-1-3.1.3-4.2c9-7.8 18.8-10.8 27.8-8.6 6.6 1.6 11.2 6.5 12 12.8.7 6-2.4 11.8-7.9 14.7-.5.3-.9.4-1.4.4zM52.9 82.6h-.4c-1.6-.2-2.8-1.7-2.6-3.4 1-7.5-1.6-21.9-1.7-22-.3-1.6.8-3.2 2.4-3.5 1.6-.3 3.2.8 3.5 2.4.1.6 2.9 15.5 1.7 23.9-.1 1.5-1.4 2.6-2.9 2.6z"/></svg>