<?xml version="1.0" encoding="utf-8"?>
<!-- Generator: Adobe Illustrator 18.1.1, SVG Export Plug-In . SVG Version: 6.00 Build 0)  -->
<!DOCTYPE svg PUBLIC "-//W3C//DTD SVG 1.1//EN" "http://www.w3.org/Graphics/SVG/1.1/DTD/svg11.dtd">
<svg version="1.1" id="Layer_1" xmlns="http://www.w3.org/2000/svg" xmlns:xlink="http://www.w3.org/1999/xlink" x="0px" y="0px"
	 viewBox="0 0 343.4 351.9" enable-background="new 0 0 343.4 351.9" xml:space="preserve">
<path fill-rule="evenodd" clip-rule="evenodd" fill="#BCD4DE" d="M194,0c0.7,0,1.3,0,2,0c0.7,3.1,2.4,5.2,2,9.4
	c2.9,1.2,4.4,3.9,6.9,5.4c1.2-0.5-1.1-2.3,0.5-3c1.8,0.3,2.1-0.8,4-0.5c3,2.5,3.8,7.1,5.9,10.4c2.3,0.2,7.1-0.5,7.9,2.5
	c0.9,2.3-0.1,6.3,2.5,6.9c0.8-0.4-0.1-2.4,1.5-2c2.4,0.3,4.6,0.7,7.4,0.5c0.8,1.2,2.1,1.8,3,3c-0.4,1.4-0.6,3.1-1,4.5
	c0.4,1.7,2,2.3,2,4.5c-0.1,1.6-2.7,0.6-2.5,2.5c1.8,1.7,4.8,2.1,8.4,2c1.1-1.8,3.6-2.4,5.4-3.5c0.9-1.9,0.2-5.4,2.5-5.9
	c0.7,0,1.3,0,2,0c0.5,3.3-1.5,4.1-1.5,6.9c-0.1,2,2.1,1.5,2,3.5c-0.3,1.6,0.3,2.3,0.5,3.5c2.4,0.3,4.9,1.1,6.9,2
	c1.9,0.8,4,1.7,4.9,3.5c0.3,0.7-0.6,2.6,0.5,2.5c2.1-1.9,2.2,2.4,3,3.5c3.2-0.4,5.6-1.6,8.9-2c1.3-0.1,0.6,1.4,1.5,2
	c0.7,0.4,1.9-0.2,3,0.5c0.9,0.5,0.3,1.3,1.5,1.5c2.1-3,7.1-1.5,11.4-1.5c2.1,5.2,4.5,10,9.4,12.4c1.3,0.2-0.5-2.8,1.5-2
	c2.4-0.4,3.3,0.7,4,2c1.7-0.9,3.5-0.3,4.9,0.5c1.2-1.1,2.6-2.1,4.9-2c0.7,1.3,2.6,1.4,3.5,2.5c2.5,0,4.9,0,7.4,0c2,1,3.9,2.1,5.9,3
	c1,1.8,4.6,1,4.9,3.5c-0.3,2-2.7,1.9-2,4.9c-2.4-0.5-1.9,2.1-4,2c0.4,2.5-1.6,2.7-2.5,4c-1,2.9-2,5.9-3,8.9c0,2,0,4,0,5.9
	c-1,1.2-1.9,2.8-2.5,4.5c-0.5,1.5-1.4,3.2-1,5.4c0,1.5,1.8,1.2,1.5,3c-0.7,0.6-0.2,1.7-0.5,2.5c-0.3,0.9-1,1.1-1,2
	c1.5,2.6-1.1,3.7-1,6.4c1.3,1.5,1.9,3.7,2.5,5.9c-0.3,1.2-1.9,1.1-1.5,3c-2.1,0.1-2.1,2.2-3.5,3c-2.3,0.2-2.8,0.6-4.9,0c0-1,0-2,0-3
	c-1.8,0.6-2.9,2-5.9,1.5c-0.5,1.5-1,2.9-1.5,4.5c0.9,0.2,3-0.7,2.5,1c0.1,1.3-0.2,2.1-1.5,2c0.6,3.6-2.9,3-2.5,6.4
	c-2.5,0.5-2.6,3.3-4.9,4c-0.1,1.3-0.3,2.4-1,3c-2.2-0.5-2.5,0.8-4,1c-0.8,1.8-0.4,4.9-0.5,7.4c-2.2,3.5-6.3,5.3-8.9,8.4
	c1.9,2.3-1,3.9-1,5.9c0.8,1.5,2.6,2,2,4.9c-0.2,3.4-5,2.3-4.5,6.4c0.1,1.2,1.3-0.6,2-0.5c1.2,0,2.3,0,3.5,0c0.8-1.7,3-2,4-3.5
	c0.8-1.3-1.5-2.9-1-5.4c0.6-0.7,2.3-0.7,3,0c0.5-1.1,1.5-1.8,3-2c2.5-0.4,5-0.8,7.4,0c-0.3,1.6,0.8,2.6,1,4c0.3,2.7-0.9,5.3,0.5,7.9
	c0.8,1.2,2.6,1.3,4,2c1.3,1.7,2.4,3.5,2,6.9c-2.6,1-5.6,1.7-5.9,4.9c0.5,2.1,3.3,2,4.5,3.5c1,1.4,1.2,3.5,1.5,5.4
	c1.5,0.5,1.6,2.4,3.5,2.5c0.6,1.2,3,0.7,3,2.5c-0.3,2.2-1.5,3.5-1,6.4c-3.9,0.9-6.3,3.3-9.9,4.5c-2.4-0.5-3.4,0.6-4.5,1.5
	c0.8,4.1,3.8,6.1,5.9,8.9c4.2,0,6.5,1.8,6.4,5.9c0,2-2.5,1.4-2,4c-0.6,1.2-2.5,1.1-2.5,3c0.9,1.9,1.3,4.1,0.5,6.4
	c1.1,0.5,0.9,2.1,1.5,3c0.3,0.4,1.2,0.6,1.5,1c0.3,0.5,0.1,1.1,0.5,1.5c0.3,0.3,1.1,0.3,1.5,0.5c1.8,1.1,5.8,3.9,8.9,4
	c3.4,0.1,6.7-3.2,9.9-0.5c-0.3,2.4-0.7,4.6-0.5,7.4c-1.4,0.6-2.7,1.2-3.5,2.5c0.3,2.3,1,4.9-0.5,6.4c-2.2,0.7-2.5-1.9-4-0.5
	c-0.5,1,0.3,2.8-1,4c-2.8-1.3-2.1,1.6-4.9,1.5c-0.3,1.3-0.2,3.1-1,4c-1.7-0.8-3.7,0.3-5.4,1c0.9,5.3-3.8,5.1-6.9,6.4
	c-0.1,1.9-0.5,3.5-2,4c0.7,0.3,2.6-0.6,2.5,0.5c-0.5,1.3-1.1,2.5-1.5,4c-2.3-0.9-2.9,0.4-4.5,1.5c-1.6-0.3-2.3,0.3-3.5,0.5
	c-1.5,0.1,2,1.8,0,2.5c-2-0.5-3.5-1.5-6.4-1c-0.7,1.5,1.5,2.7,0,3.5c-2.2,0.4-1.6-2.1-3-2.5c-0.6,1.5-1.9-0.3-2.5-0.5
	c-0.2,2-1.9,2.4-4,2.5c-0.6-0.9-0.6-2.3-1-3.5c-3.4,0.9-2.3-2.6-4.9-2.5c-0.3-0.8-0.5,0-0.5,0.5c-0.7,0-1.3,0-2,0
	c-1-1.3-3.1-1.5-5.4-1.5c0.9-2.4,0-3.7-1-5.4c-2.6,0.7-4.9,1.7-8.4,1.5c-0.3-1-1.2-1.4-1-3c-0.6-0.7-1.9-0.8-2.5-1.5
	c-1.8,1.1-0.6,2.3-1.5,4c-3.5,0.3-5.4-0.8-8.9-0.5c-0.1-2.1,0.6-1.9,0-3.5c-5.2-0.1-11.2,0.6-13.4-2.5c-0.7-1.4,1.5-2.7-0.5-2.5
	c-3.3-0.4-5.2,3.4-7.9,5.4c-0.7,0.6-1.7,1.8-3,1.5c0.3,1.8-1.7,1.2-2.5,2c-0.9,1.3-1.9,2.4-3,3.5c-2.1-0.5-2.9-1-4.9-0.5
	c-0.8,0.7-1.2,1.8-3,1.5c-0.4,1.8-1.7,2.6-2,4.5c-0.7,0.4-1.6,0.7-1.5,2c-1,0.1-1,0.7-1.5,1.5c-1.1,1.8-1,3.2-0.5,5.9
	c-2.2,3.4-0.1,8.9-1,12.9c0.5,1,1.8,1.1,2.5,2c-0.7,2.8,2.4,1.9,1.5,4.9c-3.5,0.2-4.7-1.9-7.4-2.5c-2.8,1.7-6.5,2.4-8.4,4.9
	c-1.4-0.7-2.6,0.3-4.9,0c-2.2-1.1-4.1-2.5-6.9-3c-2.4,0.9-3.4,3.2-7.4,2.5c0-0.5-0.6-0.4-1-0.5c-1.5-2.8-2.6-6-5.9-6.9
	c0-1.3,0.2-2.8-0.5-3.5c-2,0.1-4,0.1-4.9-1c-1.5,0.2-1.8,1.5-4,1c-0.2-1-1.1-1.6-1.5-2.5c-0.4-0.8-0.1-2-1-2.5
	c-2.4-0.4-3.2,0.8-5.4,0.5c-1.6-0.4-2.5-1.4-3.5-2.5c-4,0-6.5-1.4-9.4-2.5c-1.6,0.7-0.5,4.2-1.5,5.4c-2.7-0.1-5.9,0.3-7.9-0.5
	c-0.1,1.3-0.1,2.5-1.5,2.5c-0.8-0.7-0.8-2.2-1.5-3c-1.7,0.9-3.6,0.3-5.4,0c-1.6,0-1.9,1.4-4,1c-1.9-1.1-2.5-3.5-4-4.9
	c-4.3-0.3-7.4,0.5-11.4,0.5c-1.9-1.5-3.4-3.5-4-6.4c-2.7,0.4-4-0.6-6.4-0.5c-1.7-0.9-2.7-2.6-5.9-2c-1.8-1.5-2.6-4-3.5-6.4
	c-0.3,1.3-0.8,2.5-1.5,3.5c-0.9-0.7-3.3,0-4-1c0.1-3.4,2.8-4.1,3-7.4c-0.6-1.3-2.5-1.1-3-2.5c-1.7-0.2-0.8,2.2-3,1.5
	c-0.8-1.7-3.4-1.5-4.9-2.5c0-1.2-0.9-1.5-0.5-3c0.1-1.6,2.2-1.1,3-2c1.3-0.2,1.5-1.5,3-1.5c1.2-2.9,3.3-4.9,4.5-7.9
	c0-1.8,0-3.6,0-5.4c1-1.5,1.4-3.4,2-5.4c0.4-1.5,0.4-3.8,1-5.9c0.3-1.3,1.2-2.2,1.5-3.5c0.9-3.8,0.6-7.7,2-11.4c0.4-2,0.1-1.7,0-4
	c0.8-1.3,2.1-2.2,3-3.5c1.8,0,3.2,2,4.9,0.5c0.1-1.6-0.6-2.4-2-2.5c-0.9-0.4-0.8-1.8-2-2c-0.1,1.2-1.3,1.3-2,2.5
	c-0.4,0.8,0.4,3.3-1.5,3c-1.6-2.7,0.2-5.8,0.5-8.9c0.2-1.9-0.3-4,0-5.9c0.4-2.3,1.9-4.5,2.5-6.9c0.6-2.6,0.4-6.5,1-9.4
	c0.1-0.5,0.8-1.2,1-2c0.5-2.3,0.2-4.8,3.5-4.5c0.2,1.2,1.4,1.6,2,2.5c0.2,0.3-0.2,1.3,0,1.5c0.2,0.1,0.9-0.2,1,0
	c0.3,0.4,0.2,1,0.5,1.5c1.1,1.5,2.9,2.9,3.5,4.9c0.5,1.3,0.6,3,0.5,4.9c0.6,1.7,1.5,3.1,1.5,5.4c1,0.8,2.3,1.3,2.5,3
	c0,0.8-0.2,1.9,0.5,2c-0.4-2,0.2-3.1,1.5-3.5c-5.5-1.4-3.7-10.1-5.4-15.3c-1.4-1.5-2.5-3.4-3.5-5.4c-2.4-0.7-3.5-2.7-4.9-4.5
	c-2.7-0.8-5.1-1.9-4.5-5.9c0.7-1.5,2.8,1.1,2.5-1c0.2-1.2-0.9-1.1-0.5-2.5c0.9-0.2,2.1-0.2,2-1.5c0.2-1.2-0.9-1.1-0.5-2.5
	c-0.2-1.2,2.3,0.3,1.5-1.5c-0.2-0.9-1.1-1.3-1.5-2c-0.2-0.4,0.2-1.1,0-1.5c-0.2-0.3-0.8-0.1-1-0.5c-0.3-0.6-0.2-1.1-0.5-1.5
	c-0.3-0.5-1.8-1.5-1.5-3c1.8-0.7,5.5-1.8,3-4c-2.1-0.8,0.1,2.7-2,2c-1.2-0.3-0.8-2.2-3-1.5c-0.3-1.2-1.2-1.8-2-2.5
	c-0.4-0.1-1.1,0.2-1.5,0c-0.4-0.2-0.3-0.9-0.5-1c-1.3-0.5-2.6-0.2-4.5-0.5c-1.5-1.8-3.7-2.9-5.4-4.5c-1-1.8-1.6-4-2-6.4
	c-2.9-2.7-9.4-8.3-3.5-12.4c1.2-0.8,0.7-3.3,3-3c-1.1-2.6-4.4-2.8-6.4-4.5c0.5-1.7,0.7-3.6,1-5.4l0.2-0.2l-0.2-0.2
	c2.1-0.6,4.3-0.6,6.4,0l0.2,0.2l0.2-0.2c1.3,0.7,2.2,3.9,3.5,2.5c-3.5-2.5-3.7-2.7-3.7-2.7l-0.2,0.2c0-0.2,0-0.3,0-0.5
	c-1.8-0.3-5.4-1.3-6.4,0.5l-0.2,0.2l0.2,0.2c-1.5,3.1-5.8,0.2-7.9-0.5c-1-2.8-0.4-5.7,1.5-6.9c-1.8,0.5-0.9-2.1-0.5-2.5
	c-1.6-0.5-4.1-0.2-5.4-1c0.5,1.8-1.9,0.7-3,1c-1.4,0.1-2.7,0.1-2.5-1.5c1.2-1.1,4.9,0.3,4.5-2.5c-2.4-1.1-3.8-0.4-6.4,1
	c-0.9-0.4-1.3-1.4-3-1c-0.4-1.5-0.4,1.5-2,0.5c-0.4-1.1-1-1.9-1-3.5c0.1-1.1,1.2-1.1,2.5-1c0.6-1.6-0.8-1.2-1-2
	c-0.6-0.9-0.6,3-2.5,2.5c-0.9-0.4-2-0.6-2.5-1.5c-0.8-0.4,0.1-2.4-1.5-2c0,0.8,0.2,1.9-0.5,2c-1.7-0.4-2.2-2.1-3.5-3
	c-1.6-0.4-2.9-1-4-2c-2.4,0.4-3.3-0.7-4.9-1c0.4-1.5-0.9-1.5-0.5-3c-1.5-0.4-0.6,1.7-2.5,1c-1.9,0.7-0.9-1.4-2.5-1
	c-1.4,0.4-0.7,3-2,3.5c-1.3-1-4.8,0.2-5.9-1c0.9-3.2-0.6-4.8-1-7.9c-2-1.5-5.8-0.9-7.4-1.5c0.3-3.8,6.4-1.9,8.9-3.5
	c1.5-0.2,2.4,1.1,3.5,0c1.1-2.3-1.6-2.8-2.5-3.5c-0.8-0.6-0.7-1.5-1.5-1.5c-0.9,0-1.4,2.9-3,1.5c-0.3-1.2-0.7-2.3-0.5-4
	c3.3-1.6,5.4,1.2,8.9,1c0,0.8,0.4,1.3,1,1.5c0.9-2.4-1.6-1.1-2.5-2c-0.4-0.4,0.5-2.2-0.5-2c0.2,0.8-1.8,1.7-2,0.5
	c-1.6-1.6,0.7-2.2,1.5-3c-2.9,1.2-6.6,1.6-10.4,2c0.2-3.6,0.4-5,0-8.4c0.9-1.5,4.3-0.6,5.9-1.5c1-0.1,0.5-1.8,1.5-2
	c2,1.2,2.6-0.7,4.5-1c1.5,0,1.1,1.9,3,1.5c2-1,3.8-2.1,6.4-2.5c1.7,0,0.1,3.2,2,3c2.4,0.6,1.2-2.4,3-2.5c2.7-0.2,3.2,1.7,5.4,2
	c2.2-0.8,0.8-5.2,3.5-5.4c1.8-0.8,0.3,1.7,1.5,1.5c0.2-2.1,3.2-1.4,4-3c2.1,1.4,1.7,0,4.5,0c0,0.8,0,1.6,0,2.5
	c1.9-0.1,1.9,1.7,3.5,2c-0.2,2.6,2,3,2.5,4.9c0.7,0.9,0.5,2.1,1,3c0.4,0.7,1.6,0.9,1.5,2c3.5-0.3,5.4-2.1,6.9-4.5
	c2.5,0.8,3.8-2.1,5.4-0.5c0.4,1.1-1.1,0.7-1,1.5c0-0.1,2.6-0.2,1.5,2c2.4,0.5,1.9-2.1,4-2c0.9,0.1,0.3,1.6,1.5,1.5
	c0.3-0.7-0.6-2.6,0.5-2.5c1.3,0.3,1.8-0.2,1.5-1.5c1,0,2,0,3,0c0,2.2-0.7,2.3,0.5,3.5c1.8,1,5.3,0.3,6.9,1.5
	c1.3-0.8,2.9-1.4,4.9-1.5c0.5-2-2.8-0.2-2.5-2c-0.8-0.6-1.9-1-2-2.5c0.1-4,0.5-7.7,1.5-10.9c-1,0.2-1.6-0.1-1.5-1
	c0-3-1.1-5.3,0.5-7.4c-2.4,0.1-2.4-2.2-3-4c-1.8,0-1.6-2-3-2.5c-0.8-3.2-1.8-5.3-1-8.9c-0.4-1.8-2.2-2.1-1.5-4.9
	c1.8,0.1,3.4,0.6,4,2c1.2,0,1.5-0.9,3-0.5c-0.1,1.6,1.3,1.7,2.5,2c0.9-0.6,1.9-0.7,3-1.5c0.2-0.2,0.4-0.6,1-0.5c1.7,0,3.3,0,4.9,0
	c0.6,2.3,1.3,6.2-2,5.9c0.7,2.2,2.1,3.8,3,5.9c0.4,1.5-1.5,3-0.5,3.5c0.3-1.8,2.3,1.1,2.5-0.5c-0.4-1.6,0.8-1.5,1.5-2
	c2.6-0.5,3.4,0.8,4.9,1.5c2.5-0.8,7.2,0.3,10.4,0.5c2.5,1.5,4.4,3,6.9,3c3.5,0,5.7-2.7,8.9-4c1.1-0.4,3.4-1,5.4-1
	c1.6-0.6-1.3-0.6-2-0.5c-1.2,0-2.3,0-3.5,0c-0.3-1.3-2.1-1.2-2-3c1.6-2.6,2.3-5.9,4-8.4c2.3-0.9,3.7-2.6,6.4-3c1-1.3,2.2-2.4,4-3
	c2.3-0.9,4.4-1,6.9-0.5c1-0.5,2-1,3-1.5c1.2,0,1.5,0.9,3,0.5c0.5-1,1.6-1.3,2.5-2c1.1-0.9,2.2-1.9,3.5-3c0.9-0.8,2-1.5,3.5-2.5
	c1-0.9,1.1-2.8,2.5-3.5c1.9-0.1,4.1,2.1,4.9,1.5c-1.2-1.9-3.5-2.8-4.5-4.9c0.4-2.8,0.4-8.4,2-11.4c-1.1,0.2-0.9-0.7-1-1.5
	c-0.7-0.2-0.4-1.2-0.5-2c0.6-2.7,2.1-4.5,1.5-8.4c1.5-1.6,3.8-2.4,5.4-4c1.6,0.1,2.1-0.9,4-0.5C183.8,1.4,190.8,2.6,194,0z M73.7,97
	c-0.7-0.2,0,0.6,0,0.5C73.9,101.5,74.5,97.2,73.7,97z M16.3,119.7c0.1-0.5-0.4-1.3-0.5-0.5C15.8,119.8,16.2,120.5,16.3,119.7z
	 M265.7,308.3c2.8,0.2,5.2-0.1,5.4-2.5c-0.4-1.2-2.2,0.2-3-0.5c-0.2-0.2,0.2-1.4,0-1.5c-1.1-0.5-2.8,0.4-3.5-1
	C264.2,305.5,266.4,305.4,265.7,308.3z M175.7,348.3c2.7,0.3,3-2.4,0.5-2.5C175.7,346.4,175.5,347.2,175.7,348.3z"/>
<g>
	<path fill-rule="evenodd" clip-rule="evenodd" fill="#FFFFFF" d="M263.6,283.9c0-0.1-0.1-0.1-0.1-0.2c-0.4-0.3-0.8-0.6-1.1-0.9
		c-0.5-0.4-1-0.8-1.6-1.1c-0.2-0.1-0.4-0.1-0.7-0.2c-0.1,0-0.1-0.1-0.2-0.1c0.2-0.3,0.3-0.6,0.5-0.9c0.3-0.8,0.4-1.7,0.2-2.5
		c-0.1-0.3-0.1-0.5-0.2-0.8c-0.1-0.2-0.2-0.4-0.3-0.6c-0.2-0.4-0.4-0.9-0.7-1.3c-0.3-0.4-0.6-0.8-0.9-1.1c-0.2-0.2-0.5-0.5-0.7-0.6
		c-0.3-0.2-0.6-0.2-0.9-0.4c-0.5-0.2-1-0.5-1.3-1c-0.2-0.3-0.4-0.5-0.6-0.7c-0.2-0.3-0.5-0.5-0.7-0.8c-0.3-0.4-0.6-0.7-1.1-0.8
		c-0.5,0-0.7-0.4-0.9-0.8c-0.1-0.2-0.2-0.4-0.2-0.6c0,0,0.1-0.1,0.1-0.2c0.3-0.1,0.6-0.4,0.8-0.7c0.3-0.3,0.3-0.7,0.4-1.1
		c0-0.3,0-0.6,0-0.8c0-0.3-0.1-0.5,0.1-0.8c0.1-0.2,0-0.5-0.3-0.6c-0.4-0.1-0.8-0.2-1.2-0.4c-0.3-0.1-0.6-0.1-0.9-0.2
		c-0.2-0.1-0.3-0.2-0.4-0.4c-0.2-0.2-0.5-0.5-0.8-0.5c-0.2,0-0.4,0-0.5,0c-0.2,0.1-0.5,0.2-0.7,0.3c-0.3,0.1-0.5,0.1-0.8,0.1
		c-0.3,0-0.6,0.1-0.9,0.3c-0.3,0.3-0.5,0.6-0.7,0.9c-0.2,0.3-0.5,0.5-0.8,0.7c-0.4,0.2-0.8,0.5-1.2,0.9c-0.1,0.1-0.1,0.2-0.1,0.3
		c0.1,0.3,0.1,0.6,0.2,0.9c0,0.1,0,0.2,0,0.4c0,0.4,0.1,0.7,0.3,1c0.2,0.3,0.4,0.5,0.7,0.7c0.1,0.1,0.3,0.1,0.5,0
		c0.3-0.2,0.5-0.5,0.7-0.9c0.1-0.1,0-0.2,0-0.4c0-0.1,0-0.1,0-0.2c0-0.1,0-0.3-0.1-0.4c-0.1-0.3,0-0.6,0.2-0.7
		c0,0.2,0.1,0.4,0.1,0.7c0.1,0.4,0.3,0.7,0.4,1.1c0.1,0.3,0.1,0.6,0.1,0.9c0,0.5-0.1,1.1-0.2,1.6c-0.1,0.9-0.1,1.8,0.1,2.7
		c0.1,0.4,0.2,0.9,0.4,1.3c0.3,0.6,0.6,1.2,1.1,1.7c0.1,0.1,0.1,0.2,0,0.3c-0.3,0.4-0.5,0.8-0.8,1.2c-0.1,0.2-0.4,0.3-0.6,0.4
		c-0.4,0.2-0.7,0.4-0.8,0.8c0,0.1,0,0.2,0,0.2c0.2,0.2,0.5,0.3,0.8,0.2c0.2,0,0.4,0,0.6,0c0.3,0,0.6,0,0.9,0c0.1,0,0.1-0.1,0.1-0.2
		c0-0.2,0-0.4,0-0.6c0-0.1,0-0.2,0-0.3c0.2-0.3,0.3-0.6,0.6-0.7c0.1,0,0.2-0.1,0.2-0.1c0.1,0,0.2,0.1,0.3,0.2
		c0.1,0.1,0.1,0.2,0.2,0.2c0.2,0.3,0.2,0.6-0.1,0.8c-0.2,0.2-0.3,0.4-0.3,0.7c0,0.1,0.2,0.2,0.3,0.3c0.1,0.1,0.3,0.3,0.4,0.4
		c0,0,0.1,0.1,0.1,0.1c0.2,0.1,0.4,0.2,0.6,0.3c0.1,0.1,0.3,0.1,0.4,0.2c0.1,0,0.1,0.1,0.2,0.2c0.5,0.5,1.1,0.7,1.7,0.9
		c0.3,0.1,0.6,0.1,0.9,0.2c0.4,0,0.7,0,1.1-0.1c0.5,0,1.1-0.1,1.6-0.2c0.2,0,0.5-0.1,0.7-0.2c0.5-0.1,1-0.3,1.4,0
		c0.8,0.3,1.5,0.6,2.3,1c0.4,0.2,0.8,0.3,1.2,0.5c0.2,0.1,0.3,0.2,0.4,0.3C263.4,283.8,263.5,283.9,263.6,283.9
		C263.6,283.9,263.6,283.9,263.6,283.9z"/>
	<path fill-rule="evenodd" clip-rule="evenodd" fill="#FFFFFF" d="M264.8,269.3c0,0.4-0.1,0.7-0.3,1c0,0.1-0.1,0.1-0.2,0.2
		c-0.4,0.3-0.7,0.6-1,1c-0.1,0.1-0.1,0.2-0.1,0.3c-0.1,0.3-0.1,0.6-0.4,0.9c-0.3,0.2-0.3,0.6-0.3,0.9c0,0.4,0,0.9,0,1.3
		c0,0.2-0.1,0.4-0.1,0.7c-0.1,0.6-0.3,1.1-0.4,1.7c-0.1,0.4-0.2,0.8-0.3,1.2c0,0.2,0,0.4,0,0.5c0,0.6,0.2,1.1,0.4,1.7
		c0.1,0.3,0.2,0.5,0.4,0.7c0.2,0.2,0.4,0.5,0.7,0.6c0.4,0.3,1,0.4,1.5,0.4c0.3,0,0.5,0,0.8,0.1c0.1,0,0.2,0,0.3,0
		c0.2,0,0.4,0.1,0.6,0.1c0.1,0,0.2,0,0.3,0c0.7,0.2,1.4,0.5,2,1c0.1,0.1,0.2,0.2,0.3,0.3c0,0,0.1,0,0.1,0c0-0.1,0.1-0.1,0-0.2
		c0-0.1-0.1-0.2-0.1-0.3c-0.1-0.2-0.2-0.4-0.4-0.5c-0.1-0.1-0.3-0.3-0.5-0.4c0.5,0,0.9-0.1,1.3-0.3c0.5-0.2,0.8-0.5,0.9-1
		c0.1-0.4,0.2-0.8,0.3-1.2c0.1-0.5,0.1-1.1-0.2-1.5c-0.1-0.1-0.2-0.1-0.2-0.2c-0.3-0.3-0.7-0.6-1-1c-0.1-0.1-0.1-0.3-0.1-0.5
		c0-0.3,0-0.6,0.1-0.9c0.1-0.3,0.1-0.6,0.3-0.8c0.2-0.4,0.3-0.7,0.3-1.1c0-0.2,0-0.4,0-0.6c0-0.2-0.2-0.4-0.4-0.6
		c-0.1-0.1-0.2-0.2-0.2-0.4c-0.1-0.4-0.3-0.8-0.5-1.1c-0.1-0.2-0.3-0.4-0.4-0.6c-0.3-0.5-0.3-1-0.1-1.4c0.1-0.3,0.1-0.5,0.1-0.8
		c0-0.1,0-0.2,0.1-0.3c0,0.2,0.1,0.4,0.1,0.5c0,0.2,0.1,0.5,0.1,0.7c0.1,0.4,0.5,0.7,1,0.4c0.4-0.2,0.6-0.6,0.8-0.9
		c0.3-0.4,0.4-0.9,0.5-1.4c0-0.3-0.1-0.5-0.3-0.6c-0.4-0.2-0.8-0.4-1.1-0.5c-0.2-0.1-0.4-0.2-0.5-0.4c-0.1-0.3-0.3-0.6-0.4-0.9
		c-0.2-0.3-0.4-0.5-0.8-0.5c-0.2,0-0.3,0.1-0.5,0.1c-0.3,0.1-0.5,0.1-0.7-0.1c-0.2-0.2-0.5-0.1-0.8-0.2c-0.3,0-0.6,0.2-0.8,0.4
		c-0.3,0.4-0.7,0.5-1.1,0.7c-0.3,0.1-0.6,0.2-0.9,0.3c-0.2,0.1-0.2,0.2-0.2,0.4c0,0.4,0,0.7,0,1.1c0,0.3,0,0.6,0,0.9
		c0,0.4,0.2,0.6,0.5,0.9c0.4,0.3,0.8,0.3,1.2,0.3C264.7,269.3,264.7,269.3,264.8,269.3z"/>
</g>
<path id="eiffel_tower_1_" fill="#FFFFFF" d="M210.6,74.1v-0.6l0.1-0.1l-0.1-0.1h-0.3c0.3-0.2,0.4-0.5,0.4-0.5h-0.4
	c-0.7-0.8-1.4-3.3-1.4-3.3h0.1L209,69c0,0-0.1,0.1-0.1,0c-0.1-0.1,0-0.2,0-0.2l0.1-0.1l0.1-0.2l0.1-0.5l-0.1-0.1l-0.2-0.1l-0.2-0.1
	l0-0.1h-0.1l-0.1-0.5c-0.1-0.3-0.2-2.4-0.4-4.6c0-0.5-0.1-0.9-0.1-0.9c0,0,0,0,0,0c0-0.4-0.1-0.7-0.1-1.1c0,0,0,0,0,0c0,0,0,0,0,0
	c0,0,0,0,0,0c0,0,0,0,0,0c0-0.3-0.1-0.7-0.1-1c0,0,0,0,0,0c0,0,0,0,0,0c0,0,0,0,0,0l-0.1-0.9c0,0,0-0.1,0-0.1c0,0,0,0,0,0
	c0,0,0,0,0,0c0,0,0,0,0,0l-0.1-0.8c0,0,0,0,0,0c0,0,0,0,0,0c0,0,0,0,0,0c0,0,0,0,0,0c0,0,0,0,0,0c0-0.1,0-0.2,0-0.2
	c0-0.1,0-0.3,0-0.4c0,0,0,0,0,0c0,0,0,0,0,0c0,0,0,0,0,0c0,0,0,0,0,0c0-0.4,0-0.8,0.1-1c0-0.1,0-0.1,0-0.1l0.1-0.2c0,0,0-0.1,0-0.1
	c0-0.1,0-0.3,0-0.3c0-0.1-0.1-0.1-0.1-0.1l-0.1-0.1l-0.2,0v-0.1l0.2-0.1c0,0,0.1,0-0.1-0.1c-0.2,0-0.3-0.2-0.4-0.4
	c-0.1-0.2,0-0.9,0-1.2c0-0.1,0-0.2,0-0.2v-0.1c0,0,0,0,0,0c0,0,0,0,0,0v0.1c0,0,0,0.1,0,0.2c0,0.3,0,1,0,1.2
	c-0.1,0.2-0.2,0.3-0.4,0.4c-0.2,0-0.1,0.1-0.1,0.1l0.2,0.1v0.1l-0.2,0l-0.1,0.1c0,0-0.1,0-0.1,0.1c0,0.1,0,0.3,0,0.4
	c0,0,0,0.1,0,0.1l0.1,0.2c0,0,0,0.1,0,0.3c0,0.2,0,0.5,0,0.8c0,0,0,0,0,0c0,0,0,0,0,0c0,0,0,0,0,0c0,0,0,0,0,0c0,0.1,0,0.3,0,0.4
	c0,0,0,0.1,0,0.2c0,0,0,0,0,0c0,0,0,0,0,0c0,0,0,0,0,0l0,0c0,0,0,0,0,0c0,0,0,0,0,0c0,0.2,0,0.5-0.1,0.8c0,0,0,0,0,0c0,0,0,0,0,0
	c0,0,0,0,0,0c0,0,0,0,0,0.1c0,0.3,0,0.6-0.1,0.9c0,0,0,0,0,0l0,1c0,0,0,0.1,0,0.1c0,0,0,0,0,0c0,0,0,0,0,0c-0.2,2.8-0.5,6.3-0.6,6.7
	l-0.1,0.5h-0.1l0,0.1l-0.3,0.1l0,0.1l0,0.1l0.2,0.7l0,0l0.1,0.1c0,0,0,0.1,0,0.2c-0.1,0.1-0.1,0-0.1,0l-0.1,0.3h0.1
	c0,0-0.7,2.5-1.4,3.3h-0.4c0,0,0.1,0.3,0.4,0.5h-0.3l-0.1,0.1l0.1,0.1v0.6c0,0-2.1,3.7-2.6,4.9h2h0.8c0,0,0.2-3.3,3.2-3.4
	c3,0,3.2,3.4,3.2,3.4h0.9h1.9C212.7,77.8,210.6,74.1,210.6,74.1z M207.2,72.5l-1-0.1l0.5-2.3h0.6h0.6l0.5,2.3L207.2,72.5z
	 M208.7,70.5C208.7,70.5,208.7,70.5,208.7,70.5C208.7,70.5,208.7,70.5,208.7,70.5C208.7,70.5,208.7,70.5,208.7,70.5z"/>
<path fill="#FFFFFF" d="M187.7,76.5C187.7,76.5,187.7,76.6,187.7,76.5L187.7,76.5C187.7,76.6,187.7,76.6,187.7,76.5L187.7,76.5
	l0.1,0.1c0,0,0,0,0,0v0c0,0,0,0,0,0.1c0,0,0,0,0,0v0c0,0,0,0.1,0,0.1c0,0,0,0,0,0s0,0,0,0.1c0,0,0,0,0,0c0,0,0,0,0,0l0,0
	c0,0,0,0,0,0.1c0,0.1,0,0.1,0,0.1c0,0,0,0,0,0.1s0,0.1,0,0.1c0,0,0,0,0,0c0,0,0,0,0,0c0,0,0,0,0,0s0,0,0,0v0c0,0,0,0,0,0.1
	c0,0,0,0,0,0c0,0,0,0,0,0c0,0.1,0,0.1,0.1,0.1c0,0,0,0,0,0c0,0,0,0,0,0c0,0,0,0,0,0c0,0,0,0,0,0v0c0,0,0,0,0,0.1c0,0,0,0,0,0
	c0.1,0,0.1,0,0.1,0c0,0,0,0,0,0.1c0,0,0,0,0,0c0,0,0,0,0,0c0,0,0,0,0,0c0,0,0,0,0,0c0,0,0,0,0,0.1c0,0,0,0,0,0.1c0,0,0,0,0,0.1
	c0,0,0,0,0,0.1c0,0,0,0,0,0c0,0,0,0.1,0,0.1c0,0,0,0,0,0.1v0v0v0c0,0.1,0,0.1,0.1,0.2c0,0,0,0.1,0,0.1l0,0c0,0,0,0,0,0
	c0,0,0,0,0,0.1v0c0,0,0,0,0,0v0c0,0,0,0,0,0l0,0c0,0,0,0,0,0c0,0,0,0.1,0,0.1c0,0,0,0,0,0v0c0,0,0,0.1,0,0.1c0,0,0,0.1,0,0.1
	c0,0,0,0,0,0.1c0,0,0,0,0,0.1c0,0,0,0,0,0c0,0,0,0,0,0l0,0c0,0,0,0,0,0.1c0,0,0,0.1,0,0.1c0,0,0,0,0,0c0,0.1,0,0.1,0,0.1
	c0,0,0,0,0,0c0,0,0,0,0,0c0,0,0,0,0,0c0,0,0,0,0,0c0,0,0,0,0,0s0,0,0,0c0,0,0,0,0,0c0,0,0,0.1,0,0.1c0,0.1,0,0.1,0,0.2c0,0,0,0,0,0
	c0,0,0,0.1,0,0.1c0,0,0,0,0,0c0,0,0,0,0,0c0,0,0,0.1,0,0.1s0,0.1,0,0.1c0,0,0,0.1,0,0.1c0,0,0,0,0,0c0,0,0,0,0,0c0,0,0,0.1,0,0.1
	c0,0,0,0,0,0v0c0,0,0,0,0,0l0,0c0,0,0,0,0,0c0,0,0,0,0,0c0,0,0,0,0,0.1c0,0,0,0.1,0,0.1c0,0,0,0,0,0c0,0,0,0,0,0c0,0,0,0,0,0.1
	c0.1,0,0.1,0,0.1,0.1c0,0,0,0,0,0.1c0,0,0,0,0.1,0v0c0,0,0,0,0,0.1l0,0l0,0c0.1,0,0.2,0.1,0.3,0.1c0,0,0,0,0,0c0,0,0,0,0.1,0
	c0,0,0,0,0,0l0,0c0,0,0,0,0,0c0,0,0,0,0,0h0c0,0,0,0,0,0s0,0,0,0c0,0,0.1,0,0.1,0c0,0,0.1,0,0.1,0c0,0,0,0,0,0h0c0,0,0.1,0,0.1,0
	c0,0,0,0,0,0c0,0,0,0,0,0c0,0,0.1,0,0.1,0s0,0,0,0c0,0,0.1,0,0.1,0c0,0,0,0,0,0l0,0c0,0,0,0,0,0l0,0l0,0c0,0,0,0,0,0s0,0,0,0l0,0
	c0,0,0,0,0,0c0,0,0,0,0,0l0,0c0,0,0,0,0.1,0l0,0c0,0,0,0,0,0c0,0,0,0,0,0l0.1,0c0.1,0,0.1,0,0.1,0s0,0,0,0c0,0,0.1,0,0.1,0l0,0
	c0,0,0,0,0,0c0,0,0,0,0.1,0c0,0,0,0,0.1,0c0,0,0.1,0,0.1,0l0,0c0,0,0,0,0,0l0,0c0,0,0,0,0.1,0h0c0,0,0,0,0,0c0,0,0,0,0.1,0h0
	c0,0,0,0,0,0c0,0,0,0,0,0h0h0c0,0,0,0,0.1,0l0,0h0h0c0,0,0.1,0,0.1,0c0,0,0,0,0,0c0,0,0,0,0,0l0,0c0,0,0,0,0,0c0,0,0,0,0,0
	c0,0,0,0,0,0c0,0,0,0,0,0h0c0,0,0,0,0.1,0l0,0c0,0,0,0,0,0h0.1c0,0,0,0,0,0c0,0,0,0,0,0c0,0,0,0,0,0s0,0,0,0c0,0,0,0,0,0l0,0
	c0,0,0,0,0,0s0,0,0,0l0,0l0,0l0,0c0,0,0.1,0,0.1,0c0,0,0,0,0,0v0l0,0l0,0h0h0c0,0,0,0,0,0c0.1,0,0.1,0,0.1,0c0,0,0,0,0,0
	c0,0,0,0,0,0h0c0,0,0.1,0,0.1,0c0,0,0,0,0,0h0c0,0,0,0,0.1,0c0,0,0,0,0,0c0,0,0,0,0,0c0,0,0,0,0,0c0,0,0,0,0.1,0c0,0,0,0,0,0
	c0,0,0,0,0.1,0c0,0,0.1,0,0.1,0c0,0,0,0,0,0h0h0c0,0,0.1,0,0.1,0c0,0,0,0,0,0c0,0,0,0,0,0s0,0,0.1,0s0,0,0.1,0c0,0,0,0,0,0
	c0.1,0,0.1,0,0.2,0c0,0,0.1,0,0.1,0c0,0,0.1,0,0.1,0c0,0,0,0,0,0c0,0,0,0,0.1,0c0,0,0,0,0,0h0h0c0,0,0,0,0.1,0h0c0,0,0,0,0.1,0
	c0,0,0,0,0,0c0,0,0,0,0,0h0h0c0.1,0,0.1,0,0.2,0c0,0,0,0,0,0c0,0,0.1,0,0.1,0c0,0,0,0,0,0c0,0,0,0,0.1,0h0c0,0,0.1,0,0.1,0
	c0,0,0,0,0,0l0,0c0,0,0,0,0.1,0l0,0c0,0,0,0,0,0c0,0,0.1,0,0.1,0l0,0l0,0c0-0.1,0.1-0.1,0.1-0.2c0,0,0-0.1,0-0.1c0,0,0,0,0,0
	c0,0,0,0,0,0c0,0,0,0,0,0c0,0,0,0,0-0.1v0c0,0,0-0.1,0-0.1c0,0,0,0,0,0c0,0,0,0,0,0s0,0,0-0.1c-0.1,0-0.1-0.1-0.1-0.1c0,0,0,0,0,0
	s0,0,0,0c0,0,0,0,0,0l0,0c0,0,0,0,0,0c0,0-0.1,0-0.1,0s0,0-0.1,0c0,0-0.1-0.1-0.1-0.1c0,0,0,0,0,0c0,0,0,0,0,0s0,0,0,0h0
	c0,0,0,0-0.1,0h0c0,0,0,0,0,0l0,0c0,0-0.1,0-0.1,0c0,0-0.1,0-0.1,0c0,0,0,0-0.1,0c0,0,0,0,0,0c0,0,0,0-0.1,0s0,0-0.1,0l0,0
	c0,0,0,0,0,0c0,0-0.1,0-0.1,0h0c0,0,0,0-0.1,0c0,0-0.1,0-0.1-0.1c0,0,0,0-0.1,0c0,0,0,0,0,0c0,0,0,0,0,0l0,0c0,0-0.1,0-0.1,0
	c0,0,0,0,0,0l0,0c0,0,0,0,0,0h0c0,0,0,0-0.1,0c0-0.2,0.1-0.4,0.1-0.6c0,0,0,0,0,0l0,0c0,0,0,0,0-0.1l0,0l0,0c0,0,0-0.1,0-0.1v0
	c0,0,0,0,0,0l0,0c0,0,0,0,0-0.1l0,0l0,0c0,0,0,0,0-0.1c0,0,0-0.1,0.1-0.1c0,0,0,0,0-0.1c0,0,0,0,0-0.1c0,0,0,0,0-0.1c0,0,0,0,0-0.1
	l0,0c0,0,0,0,0,0l0,0c0,0,0,0,0,0c0,0,0,0,0,0c0,0,0,0,0-0.1c0,0,0,0,0,0c0,0,0-0.1,0-0.1l0,0c0,0,0,0,0-0.1c0,0,0,0,0-0.1
	c0,0,0,0,0,0l0,0c0,0,0,0,0,0s0,0,0,0c0,0,0,0,0-0.1c0,0,0,0,0,0c0,0,0,0,0,0l0,0c0,0,0,0,0,0s0,0,0,0l0,0c0,0,0,0,0-0.1v0l0,0
	c0,0,0,0,0-0.1c0,0,0,0,0,0c0,0,0,0,0,0l0,0c0,0,0,0,0,0c0,0,0,0,0-0.1c0,0,0,0,0,0c0,0,0,0,0,0c0,0,0.1-0.1,0.1-0.1l0,0v0
	c0,0,0,0,0,0c0,0,0,0,0,0l0,0c0,0,0,0,0-0.1l0,0c0,0,0,0,0,0c0,0,0,0,0,0l0,0c0,0,0,0,0,0c0,0,0,0,0,0l0,0c0,0,0,0,0,0c0,0,0,0,0,0
	c0,0,0,0,0,0c0,0,0,0,0,0c0,0,0,0,0,0c0,0,0,0,0,0c0,0,0,0,0,0l0,0c0,0,0,0,0,0c0,0,0,0,0,0c0,0,0,0,0-0.1l0,0c0,0,0,0,0,0l0,0
	c0,0,0.1-0.1,0.1-0.1l0,0l0,0l0,0c0,0,0,0,0.1-0.1c0,0,0,0,0,0c0,0,0,0,0-0.1c0,0,0,0,0-0.1c0.1-0.1,0.1-0.1,0.2-0.2
	c0.1-0.1,0.1-0.1,0.2-0.2c0.1-0.1,0.2-0.2,0.3-0.3c0,0,0,0,0,0c0,0,0,0,0,0c0,0,0,0,0.1,0c0,0,0,0,0.1,0c0,0,0,0,0,0s0,0,0,0
	c0.1,0,0.1,0,0.1-0.1c0,0,0,0,0,0c0,0,0,0,0.1-0.1c0,0,0,0,0,0l0,0l0,0l0,0c0,0,0,0,0,0c0,0,0.1,0,0.1,0h0c0,0,0,0,0,0l0,0h0h0
	c0,0,0,0,0,0l0,0c0,0,0,0,0,0c0,0,0,0,0,0c0,0,0,0,0.1,0s0,0,0.1,0l0,0c0,0,0,0,0,0s0,0,0,0c0,0,0,0,0,0s0,0,0,0c0,0,0,0,0,0l0,0
	c0,0,0,0,0,0h0c0,0,0,0,0,0c0,0,0,0,0,0c0,0,0,0,0,0c0,0,0,0,0,0h0c0.1-0.1,0.2-0.1,0.3-0.1h0c0,0,0,0,0,0c0,0,0,0,0,0c0,0,0,0,0,0
	c0.1,0,0.1,0,0.2,0c0,0,0.1,0,0.1,0c0,0,0,0,0,0c0,0,0.1,0,0.1,0c0,0,0,0,0,0s0.1,0,0.1,0c0,0,0.1,0,0.1,0h0c0,0,0,0,0,0l0.1,0
	c0.1,0,0.1,0,0.2,0c0,0,0.1,0,0.1,0c0,0,0,0,0,0s0,0,0,0c0,0,0,0,0,0c0.1,0,0.1,0,0.1,0c0,0,0.1,0,0.1,0l0,0c0,0,0,0,0.1,0
	s0.1,0,0.1,0s0.1,0,0.1,0s0,0,0,0c0,0,0.1,0,0.1,0h0c0,0,0,0,0,0c0,0,0,0,0,0c0,0,0,0,0,0s0,0,0,0l0,0c0,0,0,0,0.1,0l0,0
	c0,0,0,0,0,0l0,0c0,0,0,0,0,0c0,0,0.1,0,0.1,0c0,0,0,0,0,0l0-0.1c0,0,0,0,0.1,0l0,0l0,0c0,0,0,0,0,0c0,0,0.1,0,0.1-0.1v0l0,0
	c0,0,0-0.1,0-0.1c0,0,0,0,0-0.1c0,0,0,0,0,0c0,0,0,0,0-0.1s0,0,0,0c0,0,0,0,0,0c0,0,0-0.1,0-0.1c0,0,0,0,0,0h0c0,0,0-0.1,0-0.1
	c0,0,0,0,0-0.1c0,0,0,0,0,0v0c0,0,0,0,0-0.1c0,0,0,0,0,0v0c0,0,0-0.1,0-0.1v0c0,0,0,0,0,0c0,0,0,0,0,0v0c0-0.1,0-0.1,0-0.1v0
	c0,0,0,0,0-0.1c0,0,0,0,0-0.1s0,0,0,0c0-0.1,0-0.1,0-0.2c0,0,0-0.1,0-0.1c0,0,0-0.1,0-0.1c0,0,0-0.1,0-0.1c0,0,0,0,0-0.1v0
	c0,0,0,0,0,0c0,0,0,0,0,0c0,0,0-0.1,0-0.1c0,0,0-0.1,0-0.1c0,0,0,0,0,0c0,0,0,0,0,0l0,0c0,0,0,0,0,0v0l0,0c0,0,0,0,0,0v0
	c0,0,0-0.1,0-0.1s0-0.1,0-0.1s0-0.1,0-0.1c0,0,0,0,0-0.1c0,0,0,0,0,0c0,0,0-0.1,0-0.1c0,0,0-0.1,0-0.1s0-0.1-0.1-0.1l0,0
	c0,0,0,0,0,0c0,0,0,0,0,0c0,0,0,0,0,0c0,0-0.1,0-0.1,0c0,0-0.1,0-0.1,0c0,0,0,0-0.1,0c0,0-0.1,0-0.1,0c0,0-0.1,0-0.1,0s0,0-0.1,0
	c0,0-0.1,0-0.1,0c-0.1,0-0.1,0-0.1,0c0,0,0,0,0,0c0,0,0,0,0,0h0c0,0-0.1,0-0.1,0c0,0,0,0,0,0h0c0,0,0,0-0.1,0c0,0-0.1,0-0.1,0
	s-0.1,0-0.1,0h0c0,0,0,0-0.1,0s0,0,0,0h0c0,0,0,0-0.1,0c0,0,0,0,0,0c0,0-0.1,0-0.1,0h0c-0.1,0-0.1,0-0.2,0c0,0,0,0-0.1,0
	c0,0,0,0,0,0c0,0,0,0,0,0c0,0,0,0-0.1,0c0,0,0,0,0,0c0,0-0.1,0-0.1,0c-0.1,0-0.1,0-0.2,0c0,0,0,0-0.1,0c0,0,0,0,0,0c0,0,0,0-0.1,0
	c0,0,0,0-0.1,0c0,0-0.1,0-0.1,0l0,0c0,0,0,0-0.1,0c0,0-0.1,0-0.1,0c0,0,0,0,0,0c0,0-0.1,0-0.1,0.1h0h0c0,0,0,0,0,0c0,0,0,0,0,0h0
	c0,0-0.1,0-0.1,0s0,0,0,0c0,0,0,0,0,0c0,0,0,0,0,0c0,0-0.1,0-0.1,0c0,0,0,0,0,0c0,0,0,0,0,0c0,0,0,0,0,0s0,0,0,0l0,0
	c0,0-0.1,0-0.1,0c0,0,0,0-0.1,0s0,0,0,0s0,0-0.1,0c0,0,0,0,0,0h0l0,0h0c0,0,0,0-0.1,0c0,0,0,0,0,0c0,0-0.1,0-0.1,0.1c0,0,0,0,0,0
	c0,0,0,0,0,0c0,0,0,0,0,0c0,0,0,0,0,0c0,0,0,0,0,0s0,0,0,0h0c0,0,0,0,0,0h0c0,0,0,0,0,0h0c0,0,0,0,0,0c0,0,0,0,0,0c0,0,0,0,0,0l0,0
	c0,0,0,0,0,0l0,0c0,0,0,0-0.1,0c0,0,0,0-0.1,0c0,0-0.1,0-0.1,0l0,0c0,0-0.1,0-0.1,0.1c0,0-0.1,0-0.1,0.1c0,0,0,0-0.1,0
	c0,0-0.1,0-0.1,0c0,0,0,0-0.1,0c0,0,0,0,0,0c0,0-0.1,0-0.1,0c0,0-0.1,0-0.1,0c0,0-0.1,0-0.1,0c0,0,0,0,0,0l0,0c0,0,0,0,0,0
	c0,0,0,0,0,0c0,0,0,0,0,0h0c0,0,0,0,0,0c0,0,0,0,0,0h0l0,0c0,0,0,0,0,0c0,0,0,0,0,0h0c0,0,0,0-0.1,0h0c0,0,0,0,0,0h0c0,0,0,0,0,0h0
	c0,0,0,0,0,0h0l0,0h0l0,0c0,0,0,0,0,0c0,0,0,0,0,0h0c0,0,0,0,0,0l0,0c0,0,0,0-0.1,0c0,0,0,0-0.1,0c0,0,0,0,0,0h0c0,0,0,0,0,0
	c0,0,0,0,0,0l0,0l0,0c0,0,0,0,0,0c0,0,0,0,0,0c0,0,0,0,0,0c0,0,0,0,0,0l0,0c0,0,0,0-0.1,0.1l0,0c0,0,0,0-0.1,0.1c0,0,0,0,0,0
	c0,0,0,0,0,0s0,0,0,0c0,0,0,0,0,0c0,0,0,0,0,0s0,0-0.1,0c0,0,0,0,0,0c0,0,0,0,0,0c0,0,0,0,0,0l0,0c0,0,0,0,0,0c0,0,0,0-0.1,0.1
	c0,0,0,0-0.1,0.1c0,0,0,0,0,0c0,0,0,0,0,0c0,0,0,0,0,0c0,0,0,0,0,0c0,0,0,0,0,0c0,0,0,0,0,0c0,0,0,0,0,0c0,0,0,0,0,0l0,0
	c0,0,0,0,0,0c0,0,0,0,0,0c0,0,0,0-0.1,0.1c0,0,0,0-0.1,0.1l0,0c0,0,0,0,0,0c0,0,0,0,0,0l0,0c0,0,0,0,0,0l0,0c0,0,0,0,0,0
	c0,0,0,0,0,0c0,0,0,0,0,0s0,0,0,0l0,0c0,0,0,0-0.1,0.1c0,0,0,0,0,0s0,0,0,0l0,0l0,0c0,0,0,0,0,0c0,0,0,0,0,0.1c0,0,0,0,0,0
	c0,0,0,0,0,0c0,0,0,0,0,0.1l0,0c0,0,0,0,0,0v0l0,0c0,0,0,0,0,0c0,0,0,0,0,0.1l0,0l0,0c0,0,0,0,0,0c0,0,0,0,0,0.1c0,0,0,0,0,0l0,0
	c0,0,0,0,0,0c0,0,0,0,0,0c0,0,0,0,0,0.1l0,0c0,0,0,0,0,0c0,0,0,0,0,0s0,0,0,0l0,0c0,0,0,0,0,0v0c0,0,0,0,0,0c0,0,0,0,0,0l0,0
	c0,0,0,0,0,0c0,0,0,0,0,0c0,0,0,0,0,0c0,0,0,0,0,0l0,0c0,0,0,0,0,0c0,0,0,0,0,0c0,0,0,0,0,0.1c0,0,0,0,0,0v0l0,0l0,0.1c0,0,0,0,0,0
	v0l0,0l0,0c0,0,0,0,0,0c0,0,0,0,0,0c0,0,0,0,0,0c0,0,0,0.1,0,0.1v0c0,0,0,0,0,0c0,0,0,0,0,0l0,0l0,0c0,0,0,0,0,0.1c0,0,0,0.1,0,0.1
	c0,0,0,0.1,0,0.1c0,0,0,0,0,0v0c0,0,0,0,0,0.1c0,0,0,0,0,0.1c0,0,0,0,0,0c0,0,0,0,0,0c0,0,0,0,0,0c0,0,0,0,0,0l0,0c0,0,0,0,0,0
	c0,0,0,0,0,0c0,0,0,0.1,0,0.1v0c0,0,0,0,0,0c0,0,0,0,0,0l0,0c0,0,0,0,0,0.1v0l0,0c0,0,0,0,0,0.1c0,0,0,0,0,0c0,0,0,0,0,0s0,0,0,0
	c0,0,0,0,0,0c0,0,0,0,0,0s0,0,0,0c0,0,0,0,0,0.1l0,0l0,0c0,0,0,0,0,0.1c0,0,0,0,0,0c0,0,0,0,0,0v0c0,0,0,0,0,0.1l0,0c0,0,0,0,0,0
	l0,0c0,0,0,0.1,0,0.1c0,0,0,0,0,0v0c0,0,0,0.1,0,0.1c0,0,0,0.1,0,0.1c0,0,0,0,0,0.1v0c0,0,0,0.1,0,0.1c-0.1,0-0.2,0-0.3,0h0
	c0,0,0,0,0,0c-0.1,0-0.1,0-0.2,0c0,0-0.1,0-0.1,0c0,0,0,0,0,0s0,0-0.1,0c-0.1,0-0.1,0-0.1,0c-0.1,0-0.3,0-0.4,0c0,0,0,0,0,0h0
	c0,0,0,0,0,0l0,0c0,0-0.1,0-0.1,0s0,0-0.1,0c0,0,0,0-0.1,0c0,0,0,0-0.1,0c0,0-0.1,0-0.1,0l0,0c0,0-0.1,0-0.1,0l0,0
	c-0.1,0-0.1-0.1-0.2-0.1h0c0,0,0,0,0,0c0,0,0,0-0.1,0c-0.1,0-0.1,0-0.2,0c0,0,0,0,0,0l0,0c0,0,0,0,0,0c0,0-0.1,0.1-0.1,0.1
	c0,0,0,0,0,0c0,0-0.1,0-0.1,0.1C187.7,76.3,187.6,76.5,187.7,76.5z M195.6,71.4L195.6,71.4C195.6,71.4,195.6,71.4,195.6,71.4
	L195.6,71.4C195.7,71.4,195.7,71.4,195.6,71.4c0.1,0,0.1,0,0.1,0c0,0,0,0,0.1,0c0,0,0,0,0,0c0,0,0,0,0,0c0,0,0,0,0.1,0c0,0,0,0,0,0
	c0,0,0,0,0,0l0,0c0,0,0,0,0,0c0,0,0.1,0,0.1,0c0,0,0,0,0,0c0,0,0,0,0,0c0,0,0,0,0,0c0,0,0,0,0,0s0,0,0.1,0c0,0,0,0,0,0l0,0
	c0,0,0,0,0,0c0,0,0.1,0,0.1,0c0,0,0.1,0,0.1,0c0,0,0,0,0.1,0c0,0,0,0,0,0c0,0,0.1,0,0.1,0s0,0,0,0c0.1,0,0.2,0,0.2,0h0.1
	c0.1,0,0.1,0,0.1,0c0,0,0,0,0,0c0,0,0,0,0,0h0h0.1c0,0,0,0,0,0c0,0,0,0,0.1,0c0,0,0.1,0,0.1,0c0,0,0,0,0,0c0,0,0,0,0,0
	c0,0,0.1,0,0.1,0c0,0,0.1,0,0.1,0h0c0,0,0,0,0,0.1c0,0,0,0,0,0.1c0,0,0,0,0,0.1l0,0c0,0,0,0,0,0.1c0,0,0,0,0,0c0,0,0,0,0,0
	c0,0,0,0.1,0,0.1c0,0,0,0,0,0c0,0,0,0,0,0.1s0,0.1,0,0.1c0,0,0,0,0,0v0c0,0,0,0,0,0c0,0,0,0,0,0.1c0,0,0,0,0,0.1c0,0,0,0,0,0.1
	s0,0,0,0v0c0,0,0,0,0,0c0,0,0,0.1,0,0.1c0,0,0,0,0,0c0,0,0,0,0,0c0,0.1,0,0.2,0,0.2c0,0,0,0.1,0,0.1c0,0,0,0,0,0.1c0,0,0,0,0,0
	c0,0,0,0.1,0,0.1c0,0,0,0,0,0c0,0,0,0,0,0c0,0,0,0,0,0c0,0,0,0,0,0c0,0,0,0,0,0.1v0c0,0,0,0,0,0v0.1c0,0,0,0.1,0,0.1
	c-0.2,0-0.4,0-0.7,0c0,0,0,0-0.1,0c-0.1,0-0.1,0-0.1,0c0,0,0,0-0.1,0h0c0,0,0,0-0.1,0h0c0,0-0.1,0-0.1,0c0,0,0,0,0,0c0,0,0,0,0,0
	c0,0-0.1,0-0.1,0c0,0-0.1,0-0.1,0c0,0-0.1,0-0.1,0c0,0,0,0,0,0s0,0,0,0c-0.1,0-0.1,0-0.1,0c0,0,0,0,0,0h0c0,0,0,0,0,0c0,0,0,0,0,0
	c0,0,0,0,0,0s-0.1,0,0,0c0,0-0.1,0-0.1,0c0,0,0,0,0,0v0l0,0l0,0c0,0,0,0,0,0l0,0c0,0,0,0-0.1,0c0,0,0,0,0,0c0,0,0,0,0,0c0,0,0,0,0,0
	c0,0,0,0-0.1,0c0,0-0.1,0.1-0.1,0.1c0,0,0,0-0.1,0c0,0,0,0,0,0c0,0-0.1,0.1-0.1,0.1c0,0,0,0,0,0c0,0,0,0,0,0c0,0,0,0,0,0
	c0,0,0,0,0,0s0,0,0,0c0,0,0,0,0,0c0,0-0.1,0-0.1,0c0,0-0.1,0-0.1,0.1c0,0,0,0,0,0s0,0,0,0h0c0,0,0,0,0,0c0,0,0,0,0,0.1c0,0,0,0,0,0
	c0,0-0.1,0-0.1,0l0,0c0,0,0,0,0,0c0,0,0,0,0,0c0,0,0,0,0,0c0,0,0,0,0,0l0,0l0,0c0,0,0,0,0,0l0,0c0,0-0.1,0-0.1,0.1c0,0,0,0,0,0
	c0,0-0.1,0-0.1,0.1l0,0c0,0,0,0,0,0s0,0-0.1,0c0,0,0,0,0,0c0,0,0,0,0,0c0,0,0,0,0,0c0,0,0,0,0,0l0,0h0c0,0,0,0,0,0l0,0c0,0,0,0,0,0
	c0,0,0,0-0.1,0.1c0,0,0,0,0,0l0,0c0,0,0,0,0,0c0,0,0,0,0,0c0,0,0,0,0,0s0,0,0,0c0,0,0,0-0.1,0.1c0,0,0,0-0.1,0.1l0,0c0,0,0,0,0,0
	c0,0,0,0,0,0c0,0,0,0,0,0l0,0c0,0,0,0-0.1,0c0,0,0,0,0,0s0,0,0,0c0,0,0,0,0,0c0,0,0,0,0,0l0,0c0,0,0,0-0.1,0l0,0l0,0
	c0,0-0.1,0.1-0.1,0.1c0,0,0,0.1,0,0.1l0,0c0,0,0,0,0,0l0,0c0,0-0.1,0-0.1,0.1c0,0,0,0,0,0l0,0c0,0,0,0,0,0c0,0,0,0,0,0l0,0l0,0
	c0,0,0,0,0,0c0,0,0,0,0,0v0l0,0c0,0,0,0,0,0c0,0,0,0,0,0c0,0,0,0-0.1,0c0,0,0,0,0,0c0,0,0,0,0,0.1c0,0,0,0,0,0l0,0c0,0,0,0,0,0
	c0,0,0,0,0,0s0,0,0,0.1s0,0.1-0.1,0.1l0,0c0,0,0,0,0,0l0,0l0,0v0c0,0,0,0,0,0c0,0,0,0,0,0c0,0,0,0,0,0l0,0c0,0,0,0,0,0
	c0,0,0,0,0,0.1c0,0,0,0,0,0c0,0,0,0,0,0l0,0v0c0,0,0,0,0,0c0,0,0,0,0,0s0,0,0,0c0,0,0,0,0,0c0,0,0,0,0,0s0,0,0,0v0c0,0,0,0,0,0
	c0,0,0,0,0,0c0,0,0,0,0,0l0,0c0,0,0,0,0,0c0,0,0,0.1,0,0.1c0,0,0,0,0,0.1l0,0c0,0,0,0,0,0c0,0,0,0.1,0,0.1c0,0,0,0.1-0.1,0.1l0,0
	c0,0,0,0,0,0c0,0,0,0,0,0c0,0,0,0,0,0l0,0l0,0v0c0,0,0,0,0,0.1c0,0,0,0,0,0c0,0,0,0,0,0c0,0,0,0,0,0c0,0,0,0,0,0s0,0,0,0
	c0,0,0,0.1,0,0.1c0,0,0,0,0,0c0,0,0,0,0,0c0,0,0,0,0,0l0,0v0c0,0,0,0,0,0c0,0,0,0,0,0c0,0,0,0,0,0c0,0,0,0,0,0v0c0,0,0,0,0,0l0,0
	l0,0v0c0,0,0,0,0,0.1v0c0,0,0,0,0,0v0c0,0,0,0,0,0c0,0,0,0,0,0c0,0,0,0,0,0c0,0,0,0,0,0v0c-0.1,0.1-0.1,0.1-0.1,0.1c0,0,0,0.1,0,0.1
	c0,0,0,0,0,0l0,0c0,0,0,0,0,0.1c0,0,0,0,0,0c0,0,0,0,0,0.1c0,0,0,0,0,0v0c0,0,0,0,0,0c0,0,0,0.1,0,0.1l0,0.1c0,0,0,0,0,0
	c0,0,0,0,0,0c0,0,0,0.1,0,0.1c0,0.1,0,0.1-0.1,0.2l0,0l0,0c0,0,0,0,0,0.1v0l0,0c0,0,0,0,0,0l0,0v0v0c0,0,0,0,0,0v0c0,0,0,0,0,0
	c0,0,0,0,0,0v0c0,0,0,0,0,0c0,0,0,0,0,0c0,0,0,0,0,0.1l0,0l0,0c0,0,0,0,0,0c0,0,0,0,0,0c0,0,0,0,0,0.1c0,0,0,0,0,0
	c0,0,0.1,0.1,0.1,0.1c0,0,0,0.1,0,0.1l0,0l0,0c0,0,0.1,0,0.1,0c0,0,0.1,0,0.1,0c0,0,0,0,0,0h0l0,0c0,0,0,0,0.1,0c0,0,0,0,0,0
	c0,0,0.1,0,0.1,0.1h0c0,0,0,0,0,0c0,0,0,0,0.1,0h0h0c0,0,0,0,0,0c0,0,0.1,0,0.1,0.1c0,0,0,0,0,0c0,0,0,0,0,0c0,0,0,0,0.1,0
	s0,0,0.1,0c0,0,0,0,0.1,0c0,0,0,0,0,0s0,0,0,0s0,0,0,0l0,0l0,0h0c0,0,0,0,0.1,0c0,0-0.1,0-0.1,0c0,0,0,0,0,0c0,0,0,0,0,0
	c0,0-0.1,0-0.2,0c0,0,0,0,0,0c0,0,0,0,0,0c0,0,0,0-0.1,0c0,0,0,0,0,0h0c0,0,0,0,0,0c0,0,0,0,0,0h0h0c0,0,0,0,0,0c0,0,0,0,0,0
	c0,0,0,0,0,0c0,0-0.1,0-0.1,0c0,0-0.1,0-0.1,0c0,0,0,0,0,0h0c0,0,0,0-0.1,0l0,0c0,0,0,0,0,0s0,0,0,0c0,0,0,0-0.1,0c0,0-0.1,0-0.1,0
	c0,0,0,0-0.1,0h0h0c0,0,0,0,0,0l0,0c0,0,0,0,0,0c0,0,0,0-0.1,0c0,0-0.1,0-0.1,0c0,0,0,0-0.1,0h0c0,0,0,0-0.1,0s0,0,0,0h0
	c0,0,0,0,0,0c0,0,0,0,0,0c0,0,0,0,0,0s0,0,0,0s0,0-0.1,0c-0.1,0-0.1,0-0.1,0l0,0l0,0c0,0,0,0-0.1,0c0,0,0,0,0,0c0,0,0,0,0,0
	c0,0-0.1,0-0.1,0c0,0,0,0,0,0c0,0,0,0,0,0h0c0,0,0,0-0.1,0h0c0,0-0.1,0-0.1,0c0,0-0.1,0-0.1,0c0,0-0.1,0-0.1,0c0,0-0.1,0-0.1,0.1h0
	c0,0,0,0,0,0c0,0,0,0,0,0h0h0c0,0,0,0,0,0s0,0,0,0c0,0,0,0-0.1,0c-0.1,0-0.1,0-0.1,0c0,0,0,0,0,0h0c0,0,0,0,0,0l0,0c0,0,0,0,0,0
	c0,0,0,0,0,0c0,0,0,0,0,0s0,0,0,0c0,0,0,0,0,0c0,0,0,0,0,0c0,0,0,0-0.1,0c0,0-0.1,0-0.1,0c0,0,0,0,0,0s0,0,0,0c0,0,0,0,0,0
	c0,0,0,0,0,0l0,0c0,0-0.1,0-0.1,0.1c0,0,0,0,0-0.1c0,0,0,0,0-0.1c0,0,0,0,0,0l0,0c0,0,0-0.1,0-0.1l0,0c0,0,0,0,0,0c0,0,0-0.1,0-0.1
	c0,0,0,0,0,0c0,0,0,0,0,0c0,0,0,0,0-0.1c0,0,0,0,0-0.1l0,0c0,0,0,0,0-0.1c0,0,0-0.1,0-0.1c0,0,0,0,0-0.1c0,0,0-0.1,0-0.1
	c0,0,0,0,0-0.1c0,0,0-0.1,0-0.1c0,0,0-0.1,0-0.1c0,0,0-0.1,0-0.1c0,0,0-0.1,0-0.1c0,0,0,0,0,0c0,0,0,0,0,0s0,0,0-0.1l0,0
	c0,0,0,0,0-0.1c0,0,0-0.1,0-0.1c0,0,0,0,0-0.1c0,0,0,0,0,0s0,0,0,0c0,0,0-0.1,0-0.1c0,0,0-0.1,0-0.1s0,0,0-0.1l0,0c0,0,0,0,0-0.1
	c0,0,0,0,0-0.1c0,0,0,0,0,0l0,0c0,0,0,0,0-0.1c0,0,0,0,0-0.1c0,0,0,0,0,0s0,0,0,0c0,0,0-0.1,0-0.1c0,0,0,0,0,0l0-0.1
	c0,0,0-0.1,0-0.1c0,0,0,0,0,0v0c0,0,0,0,0-0.1c0,0,0,0,0,0c0,0,0,0,0,0c0,0,0,0,0-0.1c0-0.2-0.1-0.4-0.2-0.5c0,0,0,0,0,0l0,0
	c0,0,0,0,0,0c0,0,0,0,0-0.1c0,0,0,0,0,0c0,0,0,0,0,0s0,0,0,0c0,0,0,0,0,0c0,0,0,0,0,0c0,0,0,0,0,0v0c0,0,0,0,0,0c0,0,0-0.1,0-0.1v0
	c0,0,0,0,0,0c0,0,0,0,0,0c0,0,0,0,0,0v0c0,0,0,0,0,0c0,0,0,0,0,0c0,0,0,0,0-0.1c0,0,0,0,0,0c0,0,0,0,0,0h0c0,0,0,0,0,0c0,0,0,0,0,0
	s0.1,0,0.1,0s0,0,0,0c0,0,0,0,0,0c0,0,0.1,0,0.1,0c0,0,0.1,0,0.1,0c0,0,0,0,0.1,0c0,0,0.1,0,0.1,0c0,0,0.1,0,0.1,0c0,0,0.1,0,0.1,0
	c0,0,0,0,0,0h0c0,0,0,0,0,0c0,0,0.1,0,0.1,0h0c0,0,0,0,0,0c0,0,0,0,0.1,0s0,0,0,0c0,0,0,0,0.1,0l0,0c0,0,0,0,0,0h0c0,0,0,0,0,0l0,0
	h0l0,0c0,0,0,0,0.1,0l0,0c0,0,0,0,0,0c0.1,0,0.1,0,0.1,0c0.1,0,0.2,0,0.2,0c0,0,0,0,0,0s0,0,0,0c0.1,0,0.1,0,0.1,0c0,0,0,0,0,0
	c0,0,0,0,0,0c0,0,0,0,0,0c0,0,0,0,0,0c0,0,0-0.1,0-0.1c0,0,0,0,0-0.1c0,0,0,0,0-0.1c0,0,0,0,0-0.1c0,0,0,0,0-0.1c0,0,0,0,0-0.1
	c0,0,0,0,0-0.1c0,0,0,0,0,0c0,0,0,0,0,0c0,0,0,0,0-0.1v0c0,0,0,0,0-0.1c0,0,0,0,0,0c0,0.1,0,0.1,0,0.1c0,0,0-0.1,0-0.1
	c0,0,0,0,0-0.1c0,0,0,0,0,0l0,0c0,0,0,0,0,0l0,0c0,0,0,0,0-0.1c0,0,0,0,0-0.1v0c0,0,0,0,0,0c0,0,0,0,0,0c0,0,0,0,0-0.1c0,0,0,0,0,0
	c0,0,0,0,0-0.1c0,0,0,0,0,0l0,0c0,0,0,0,0,0c0,0,0,0,0-0.1c0,0,0,0,0,0c0,0,0,0,0,0c0,0,0,0,0,0c0,0,0-0.1,0-0.1v0l0,0c0,0,0,0,0,0
	c0,0,0,0,0,0v0c0,0,0,0,0,0v0l0,0c0,0,0,0,0-0.1v0c0,0,0,0,0,0c0,0,0,0,0-0.1c0,0,0,0,0,0v0c0,0,0,0,0,0l0,0c0,0,0-0.1,0-0.1v0l0,0
	c0,0,0,0,0,0c0,0,0,0,0,0c0,0,0,0,0,0c0,0,0,0,0,0v0l0,0c0,0,0,0,0,0v0c0,0,0,0,0,0c0,0,0,0,0,0s0,0,0,0v0l0,0v0v0l0,0c0,0,0,0,0,0
	c0,0,0,0,0,0l0,0c0,0,0,0,0,0c0,0,0,0,0-0.1c0,0,0,0,0,0l0,0c0,0,0,0,0,0c0,0,0,0,0,0c0,0,0,0,0-0.1l0,0c0,0,0,0,0,0l0,0
	c0,0,0,0,0,0c0,0,0,0,0,0c0,0,0,0,0,0c0,0,0,0,0,0c0,0,0,0,0,0l0,0c0,0,0,0,0,0c0,0,0,0,0,0c0,0,0,0,0,0c0,0,0,0,0-0.1
	c0,0,0,0,0-0.1c0,0,0,0,0,0l0,0c0,0,0,0,0,0c0,0,0,0,0,0l0,0c0,0,0,0,0,0c0,0,0,0,0,0c0,0,0,0,0,0c0,0,0,0,0,0l0,0c0,0,0,0,0,0
	c0,0,0,0,0,0c0,0,0,0,0,0l0,0c0.1-0.1,0.2-0.2,0.3-0.3l0,0c0,0,0,0,0.1,0c0,0,0,0,0,0l0,0c0,0,0.1-0.1,0.1-0.1c0,0,0.1-0.1,0.1-0.1
	c0,0,0.1-0.1,0.1-0.1c0,0,0.1-0.1,0.1-0.1c0,0,0,0,0,0c0,0,0,0,0,0c0,0,0,0,0,0l0,0c0.1-0.1,0.2-0.1,0.2-0.2c0,0,0,0,0,0
	c0,0,0,0,0,0c0,0,0,0,0,0l0,0l0,0c0,0,0,0,0.1,0c0,0,0,0,0,0c0,0,0,0,0,0c0,0,0,0,0,0c0,0,0,0,0,0c0,0,0,0,0.1,0c0,0,0,0,0,0h0l0,0
	c0,0,0,0,0,0h0c0,0,0,0,0,0c0,0,0,0,0,0h0c0,0,0,0,0,0c0,0,0,0,0,0h0c0,0,0,0,0,0c0,0,0,0,0,0c0,0,0,0,0.1,0c0,0,0,0,0,0
	c0,0,0,0,0,0s0,0,0,0c0,0,0,0,0,0c0,0,0,0,0,0c0,0,0,0,0,0h0c0,0,0,0,0.1,0c0,0,0,0,0,0l0,0c0,0,0.1,0,0.1-0.1c0,0,0,0,0,0l0,0
	c0,0,0,0,0,0c0,0,0,0,0,0c0,0,0,0,0,0h0c0,0,0,0,0,0c0,0,0,0,0,0c0,0,0,0,0,0c0,0,0,0,0,0c0,0,0,0,0,0c0,0,0,0,0,0c0,0,0,0,0.1,0
	c0,0,0.1,0,0.1,0c0,0,0,0,0,0c0,0,0,0,0.1,0c0,0,0,0,0,0c0,0,0,0,0,0c0,0,0,0,0,0c0,0,0,0,0,0c0,0,0,0,0,0c0,0,0,0,0,0l0,0
	c0,0,0,0,0,0s0,0,0,0s0,0,0,0C195.6,71.5,195.6,71.4,195.6,71.4C195.6,71.4,195.6,71.4,195.6,71.4C195.6,71.4,195.6,71.4,195.6,71.4
	L195.6,71.4L195.6,71.4z M192.4,77.5L192.4,77.5L192.4,77.5L192.4,77.5L192.4,77.5z M188.6,78.8L188.6,78.8L188.6,78.8L188.6,78.8z"
	/>
<path fill="#FFFFFF" d="M289.2,285C289.2,285,289.2,285,289.2,285C289.1,284.9,289.1,284.9,289.2,285c-0.1-0.1-0.1-0.1-0.1-0.1
	c0,0,0,0,0,0l0,0c0,0,0,0,0,0c0,0-0.1,0-0.2,0c0,0,0,0-0.1,0c0,0,0,0,0,0l0,0c-0.1,0-0.2,0-0.2,0l0,0c0,0-0.1,0-0.1,0l0,0
	c0,0,0,0-0.1,0c0,0,0,0-0.1,0c0,0,0,0-0.1,0c0,0,0,0-0.1,0c0,0-0.1,0-0.1,0l0,0c0,0,0,0,0,0l0,0c0,0,0,0,0,0c-0.1,0-0.2,0-0.4,0
	c-0.1,0-0.1,0-0.1,0c0,0,0,0-0.1,0c0,0,0,0,0,0c0,0-0.1,0-0.1,0c-0.1,0-0.1,0-0.2,0c0,0,0,0,0,0l0,0c-0.1,0-0.2,0-0.3,0
	c0,0,0-0.1,0-0.1l0,0c0,0,0,0,0-0.1c0,0,0,0,0-0.1c0,0,0-0.1,0-0.1l0,0c0,0,0,0,0,0c0,0,0-0.1,0-0.1l0,0c0,0,0,0,0,0l0,0
	c0,0,0-0.1,0-0.1l0,0c0,0,0,0,0,0c0,0,0,0,0,0c0,0,0,0,0-0.1l0,0l0,0c0,0,0,0,0-0.1c0,0,0,0,0,0s0,0,0,0c0,0,0,0,0,0c0,0,0,0,0,0
	s0,0,0,0c0,0,0,0,0,0c0,0,0,0,0-0.1l0,0l0,0c0,0,0,0,0-0.1l0,0c0,0,0,0,0,0c0,0,0,0,0,0l0,0c0,0,0-0.1,0-0.1c0,0,0,0,0,0
	c0,0,0,0,0,0l0,0c0,0,0,0,0,0c0,0,0,0,0,0c0,0,0,0,0,0c0,0,0,0,0,0c0,0,0-0.1,0-0.1c0,0,0,0,0-0.1l0,0c0,0,0,0,0,0c0,0,0-0.1,0-0.1
	c0,0,0-0.1,0-0.1c0,0,0,0,0-0.1l0,0l0,0c0,0,0,0,0,0c0,0,0,0,0,0l0,0c0,0,0-0.1,0-0.1c0,0,0,0,0,0c0,0,0,0,0,0c0,0,0,0,0,0l0,0l0,0
	l0,0c0,0,0,0,0,0l0-0.1l0,0l0,0c0,0,0,0,0,0c0,0,0,0,0-0.1c0,0,0,0,0,0c0,0,0,0,0,0l0,0c0,0,0,0,0,0c0,0,0,0,0,0c0,0,0,0,0,0
	c0,0,0,0,0,0l0,0c0,0,0,0,0,0c0,0,0,0,0,0l0,0c0,0,0,0,0,0l0,0c0,0,0,0,0,0c0,0,0,0,0,0c0,0,0,0,0,0l0,0c0,0,0,0,0-0.1c0,0,0,0,0,0
	c0,0,0,0,0,0l0,0c0,0,0,0,0,0c0,0,0,0,0-0.1s0,0,0,0l0,0l0,0c0,0,0,0,0-0.1c0,0,0,0,0,0l0,0l0,0c0,0,0,0,0,0l0,0c0,0,0,0,0-0.1
	c0,0,0,0,0,0c0,0,0,0,0,0c0,0,0,0,0-0.1c0,0,0,0,0,0l0,0l0,0c0,0,0,0,0,0s0,0,0,0c0,0,0,0,0-0.1l0,0c0,0,0,0,0,0c0,0,0,0,0,0
	c0,0,0,0,0,0c0,0,0,0,0,0l0,0c0,0,0,0,0,0l0,0c0,0,0,0,0,0c0,0,0,0,0,0l0,0c0,0,0,0,0-0.1c0,0,0,0,0-0.1c0,0,0,0,0,0c0,0,0,0,0,0
	l0,0c0,0,0,0,0,0c0,0,0,0,0,0c0,0,0,0,0,0c0,0,0,0,0,0c0,0,0,0,0,0c0,0,0,0,0,0c0,0,0,0,0,0c0,0,0,0,0,0c0,0-0.1,0-0.1-0.1
	c0,0,0,0,0-0.1c0,0,0,0,0,0l0,0c0,0,0,0,0,0c0,0,0,0,0,0c0,0,0,0,0,0c0,0,0,0-0.1,0c0,0,0,0,0,0c0,0,0,0,0,0c0,0,0,0,0,0
	c0,0,0,0,0,0c0,0,0,0,0,0c0,0,0,0,0-0.1l0,0c0,0,0,0,0-0.1l0,0c0,0,0,0,0,0c0,0,0,0,0,0c0,0,0,0,0,0c0,0,0,0,0,0l0,0l0,0
	c0,0,0,0,0,0c0,0,0,0,0,0l0,0c0,0,0,0,0,0c0,0,0,0,0,0c0,0,0,0,0,0l0,0c0,0,0,0,0,0l0,0c0,0,0,0,0,0c0,0,0,0,0,0l0,0l0,0l0,0l0,0
	c0,0,0,0,0,0l0,0c0,0,0,0,0,0l0,0c0,0,0,0,0,0l0,0c0,0,0,0,0,0l0,0c0,0,0,0,0,0c0,0,0,0,0,0l0,0l0,0c0,0,0,0,0,0c0,0,0,0,0,0l0,0
	c0,0,0,0,0,0c0,0,0,0,0,0c0,0,0,0,0,0l0,0c0,0,0,0,0,0c0,0,0,0,0,0c0,0,0,0,0,0c0,0,0,0,0,0c0,0,0,0,0,0c0,0,0,0-0.1,0c0,0,0,0,0,0
	c0,0,0,0-0.1,0c0,0,0,0-0.1-0.1c0,0-0.1,0-0.1-0.1l0,0c0,0,0,0-0.1,0c0,0,0,0-0.1,0c0,0,0,0,0,0l0,0c0,0,0,0,0,0l0,0c0,0,0,0,0,0
	c0,0,0,0,0,0c0,0,0,0,0,0l0,0c0,0,0,0,0,0l0,0c0,0,0,0,0,0l0,0c0,0,0,0,0,0s0,0,0,0c0,0,0,0,0,0c0,0,0,0,0,0c0,0,0,0,0,0
	c0,0,0,0,0,0c0,0-0.1-0.1-0.1-0.1c0,0,0,0,0,0c0,0,0,0,0,0l0,0l0,0l0,0c0,0,0,0,0,0c0,0,0,0-0.1,0c0,0,0,0,0,0c0,0,0,0-0.1,0
	c0,0,0,0,0,0l0,0c0,0,0,0,0,0c0,0,0,0,0,0c0,0,0,0,0,0c0,0,0,0,0,0c0,0-0.1,0-0.1,0c0,0,0,0,0,0c0,0,0,0,0,0c0,0,0,0,0,0
	c0,0,0,0-0.1,0l0,0c0,0,0,0,0,0c0,0,0,0,0,0l0,0l0,0c0,0,0-0.1-0.1-0.1c0,0,0,0,0,0c0,0-0.1,0-0.1,0c0,0,0,0-0.1,0l0,0
	c0,0-0.1,0-0.1,0c0,0,0,0-0.1,0c0,0,0,0-0.1,0c0,0,0,0,0,0c0,0,0,0-0.1,0c-0.1,0-0.1,0-0.2,0c0,0-0.1,0-0.1,0c0,0,0,0,0,0
	c0,0-0.1,0-0.1,0c0,0,0,0,0,0c0,0,0,0,0,0c0,0,0,0-0.1,0c-0.1,0-0.2,0-0.2,0l0,0c0,0,0,0-0.1,0c0,0,0,0,0,0c0,0,0,0-0.1,0l0,0
	c0,0,0,0,0,0c0,0,0,0-0.1,0l0,0c0,0-0.1,0-0.1,0c0,0-0.1,0-0.1,0c0,0,0,0-0.1,0l0,0c0,0,0,0,0,0c0,0,0,0-0.1,0l0,0c0,0,0,0,0,0
	c0,0,0,0,0,0c0,0-0.1,0-0.1,0c0,0-0.1,0-0.1,0c0,0,0,0-0.1,0c0,0-0.1,0-0.1,0c0,0-0.1,0-0.1,0c0,0,0,0-0.1,0c0,0-0.1,0-0.1,0
	c0,0-0.1,0-0.1,0c0,0,0,0,0,0c0,0,0,0,0,0c0,0,0,0,0,0l0,0c0,0-0.1,0-0.1,0.1c0,0,0,0.1,0,0.1c0,0,0,0.1,0,0.1c0,0,0,0,0,0
	c0,0,0,0,0,0.1c0,0,0,0.1,0,0.1c0,0,0,0.1,0,0.1c0,0,0,0.1,0,0.1l0,0c0,0,0,0,0,0l0,0l0,0c0,0,0,0,0,0l0,0c0,0,0,0,0,0c0,0,0,0,0,0
	c0,0,0,0.1,0,0.1c0,0,0,0.1,0,0.1c0,0,0,0,0,0c0,0,0,0,0,0l0,0c0,0,0,0,0,0.1c0,0,0,0.1,0,0.1c0,0,0,0.1,0,0.1c0,0,0,0.1,0,0.1
	c0,0.1,0,0.1,0,0.2c0,0,0,0,0,0c0,0,0,0,0,0.1c0,0,0,0,0,0.1l0,0c0,0.1,0,0.1,0,0.1l0,0c0,0,0,0,0,0c0,0,0,0,0,0l0,0c0,0,0,0,0,0.1
	l0,0c0,0,0,0,0,0c0,0,0,0,0,0.1l0,0c0,0,0,0,0,0c0,0,0,0,0,0.1c0,0,0,0.1,0,0.1l0,0c0,0,0,0,0,0c0,0,0,0.1,0,0.1c0,0,0,0,0,0
	c0,0,0,0,0,0s0,0,0,0.1c0,0,0,0,0,0c0,0,0,0,0,0.1c0,0,0,0.1,0,0.1l0,0l0,0c0,0,0,0.1,0.1,0.1c0,0,0,0,0,0l0,0l0,0c0,0,0,0,0.1,0
	l0,0.1c0,0,0,0,0,0c0,0,0.1,0,0.1,0c0,0,0,0,0,0l0,0c0,0,0,0,0,0l0,0c0,0,0,0,0.1,0l0,0c0,0,0,0,0,0c0,0,0,0,0,0c0,0,0,0,0,0
	c0,0,0,0,0,0l0,0c0.1,0,0.1,0,0.1,0c0,0,0,0,0,0c0,0,0.1,0,0.1,0c0,0,0.1,0,0.1,0c0,0,0,0,0.1,0l0,0c0,0,0.1,0,0.1,0c0,0,0,0,0.1,0
	c0,0,0,0,0,0c0,0,0,0,0,0s0,0,0,0c0,0,0.1,0,0.1,0c0.1,0,0.1,0,0.2,0l0.1,0c0,0,0,0,0,0l0,0c0,0,0.1,0,0.1,0c0,0,0.1,0,0.1,0
	c0,0,0,0,0,0c0,0,0,0,0.1,0c0,0,0,0,0,0c0,0,0.1,0,0.1,0c0.1,0,0.1,0,0.2,0c0,0,0,0,0,0c0,0,0,0,0,0c0,0,0,0,0,0l0,0
	c0.1,0,0.2,0.1,0.3,0.1l0,0c0,0,0,0,0,0c0,0,0,0,0,0c0,0,0,0,0,0c0,0,0,0,0,0l0,0c0,0,0,0,0,0l0,0c0,0,0,0,0,0c0,0,0,0,0,0
	c0,0,0,0,0,0c0,0,0,0,0,0c0,0,0,0,0,0l0,0c0,0,0,0,0,0c0,0,0,0,0.1,0c0,0,0,0,0,0c0,0,0,0,0,0l0,0c0,0,0,0,0,0l0,0l0,0l0,0
	c0,0,0,0,0,0l0,0c0,0,0,0,0.1,0c0,0,0,0,0,0l0,0l0,0l0,0c0,0,0,0,0,0c0,0,0,0,0,0.1c0,0,0,0,0,0c0,0,0,0.1,0.1,0.1c0,0,0,0,0,0
	c0,0,0,0,0,0c0,0,0,0,0,0s0,0,0,0c0,0,0,0,0,0c0,0,0,0,0,0c0.1,0.1,0.2,0.2,0.3,0.3c0,0.1,0.1,0.1,0.1,0.2c0.1,0.1,0.1,0.1,0.2,0.2
	c0,0,0,0,0,0.1c0,0,0,0,0,0.1c0,0,0,0,0,0c0,0,0,0,0,0.1l0,0l0,0l0,0c0,0,0,0.1,0.1,0.1l0,0c0,0,0,0,0,0l0,0c0,0,0,0,0,0.1
	c0,0,0,0,0,0c0,0,0,0,0,0l0,0c0,0,0,0,0,0c0,0,0,0,0,0c0,0,0,0,0,0c0,0,0,0,0,0c0,0,0,0,0,0c0,0,0,0,0,0c0,0,0,0,0,0l0,0
	c0,0,0,0,0,0c0,0,0,0,0,0l0,0c0,0,0,0,0,0c0,0,0,0,0,0l0,0c0,0,0,0,0,0.1l0,0c0,0,0,0,0,0c0,0,0,0,0,0l0,0l0,0c0,0,0,0.1,0,0.1
	s0,0,0,0c0,0,0,0,0,0c0,0,0,0.1,0,0.1c0,0,0,0,0,0l0,0c0,0,0,0,0,0c0,0,0,0,0,0c0,0,0,0,0,0.1l0,0l0,0c0,0,0,0,0,0.1l0,0
	c0,0,0,0,0,0s0,0,0,0l0,0c0,0,0,0,0,0c0,0,0,0,0,0c0,0,0,0,0,0.1c0,0,0,0,0,0s0,0,0,0l0,0c0,0,0,0,0,0c0,0,0,0,0,0.1c0,0,0,0,0,0.1
	l0,0c0,0,0,0.1,0,0.1c0,0,0,0,0,0c0,0,0,0,0,0.1c0,0,0,0,0,0c0,0,0,0,0,0l0,0c0,0,0,0,0,0l0,0c0,0,0,0,0,0.1c0,0,0,0,0,0.1
	c0,0,0,0,0,0.1c0,0,0,0.1,0,0.1c0,0,0,0.1,0,0.1c0,0.1,0,0.1,0,0.1l0,0l0,0c0,0,0,0,0,0.1l0,0c0,0,0,0,0,0l0,0c0,0.1,0,0.1,0,0.1
	l0,0l0,0c0,0,0,0,0,0.1l0,0c0,0,0,0,0,0c0,0.2,0.1,0.4,0.1,0.6c0,0,0,0-0.1,0l0,0c0,0,0,0,0,0l0,0c0,0,0,0,0,0c0,0-0.1,0-0.1,0l0,0
	c0,0,0,0,0,0c0,0,0,0,0,0c-0.1,0-0.1,0-0.1,0c0,0-0.1,0-0.1,0c0,0-0.1,0-0.1,0l0,0c0,0,0,0-0.1,0c0,0,0,0,0,0l0,0c0,0,0,0-0.1,0
	c0,0,0,0-0.1,0s0,0,0,0c0,0,0,0-0.1,0c0,0-0.1,0-0.1,0c0,0-0.1,0-0.1,0l0,0c0,0,0,0,0,0l0,0c0,0,0,0-0.1,0l0,0c0,0,0,0,0,0
	c0,0,0,0,0,0c0,0,0,0,0,0c0,0-0.1,0-0.1,0.1c0,0,0,0-0.1,0c0,0-0.1,0-0.1,0c0,0,0,0,0,0l0,0c0,0,0,0,0,0c0,0,0,0,0,0c0,0,0,0,0,0
	c0,0-0.1,0-0.1,0.1c0,0,0,0,0,0.1c0,0,0,0,0,0c0,0,0,0,0,0c0,0,0,0.1,0,0.1l0,0c0,0,0,0,0,0c0,0,0,0,0,0c0,0,0,0,0,0c0,0,0,0,0,0
	c0,0,0,0,0,0.1c0,0.1,0,0.1,0,0.2l0,0l0,0c0,0,0,0,0.1,0c0,0,0,0,0,0l0,0c0,0,0,0,0.1,0l0,0c0,0,0,0,0,0c0,0,0.1,0,0.1,0l0,0
	c0,0,0,0,0.1,0c0,0,0,0,0,0c0,0,0.1,0,0.1,0c0,0,0,0,0,0c0.1,0,0.1,0,0.2,0l0,0l0,0c0,0,0,0,0,0c0,0,0,0,0,0c0,0,0.1,0,0.1,0l0,0
	c0,0,0.1,0,0.1,0l0,0l0,0c0,0,0,0,0,0c0,0,0,0,0.1,0c0,0,0,0,0,0c0,0,0.1,0,0.1,0c0,0,0.1,0,0.1,0c0.1,0,0.1,0,0.2,0c0,0,0,0,0,0
	c0,0,0,0,0.1,0c0,0,0,0,0.1,0c0,0,0,0,0,0c0,0,0,0,0,0c0,0,0,0,0.1,0l0,0l0,0c0,0,0,0,0,0c0,0,0.1,0,0.1,0c0,0,0.1,0,0.1,0
	c0,0,0,0,0,0c0,0,0.1,0,0.1,0c0,0,0,0,0,0c0,0,0,0,0,0c0,0,0,0,0,0c0,0,0,0,0.1,0l0,0c0,0,0,0,0,0c0,0,0,0,0.1,0l0,0c0,0,0,0,0,0
	c0,0,0,0,0,0c0,0,0.1,0,0.1,0c0,0,0,0,0,0l0,0l0,0l0,0l0,0l0,0c0,0,0,0,0,0c0,0,0,0,0.1,0l0,0l0,0l0,0c0,0,0,0,0,0s0,0,0,0l0,0
	c0,0,0,0,0,0c0,0,0,0,0,0c0,0,0,0,0,0c0,0,0,0,0,0c0,0,0,0,0,0l0.1,0c0,0,0,0,0,0l0,0c0,0,0,0,0.1,0l0,0c0,0,0,0,0,0c0,0,0,0,0,0
	c0,0,0,0,0,0c0,0,0,0,0,0l0,0c0,0,0,0,0,0c0,0,0,0,0,0c0,0,0.1,0,0.1,0l0,0l0,0l0,0c0,0,0,0,0,0l0,0l0,0c0,0,0,0,0,0c0,0,0,0,0,0
	l0,0c0,0,0,0,0,0c0,0,0,0,0,0l0,0c0,0,0,0,0.1,0l0,0c0,0,0,0,0,0l0,0c0,0,0.1,0,0.1,0c0,0,0,0,0.1,0c0,0,0,0,0.1,0c0,0,0,0,0,0l0,0
	c0,0,0,0,0.1,0c0,0,0,0,0,0s0,0,0.1,0l0.1,0c0,0,0,0,0,0c0,0,0,0,0,0l0,0c0,0,0,0,0.1,0l0,0c0,0,0,0,0,0c0,0,0,0,0,0l0,0
	c0,0,0,0,0,0c0,0,0,0,0,0l0,0l0,0c0,0,0,0,0,0l0,0c0,0,0,0,0,0c0,0,0,0,0.1,0c0,0,0,0,0,0c0,0,0.1,0,0.1,0c0,0,0,0,0,0c0,0,0,0,0,0
	c0,0,0,0,0.1,0l0,0c0,0,0,0,0,0c0,0,0.1,0,0.1,0c0,0,0.1,0,0.1,0c0,0,0,0,0,0c0,0,0,0,0,0l0,0c0,0,0,0,0,0c0,0,0,0,0,0l0,0
	c0,0,0,0,0,0c0,0,0.1,0,0.1,0c0,0,0,0,0,0c0.1,0,0.2,0,0.3,0l0,0l0,0c0,0,0,0,0-0.1l0,0c0,0,0,0,0.1,0s0,0,0-0.1c0,0,0-0.1,0.1-0.1
	c0,0,0,0,0-0.1c0,0,0,0,0,0c0,0,0,0,0,0c0,0,0-0.1,0-0.1c0,0,0,0,0-0.1c0,0,0,0,0,0c0,0,0,0,0,0l0,0c0,0,0,0,0,0l0,0c0,0,0,0,0,0
	c0,0,0-0.1,0-0.1c0,0,0,0,0,0c0,0,0,0,0,0c0-0.1,0-0.1,0-0.1c0,0,0-0.1,0-0.1c0,0,0-0.1,0-0.1c0,0,0,0,0,0c0,0,0,0,0,0
	c0,0,0-0.1,0-0.1c0,0,0,0,0,0c0-0.1,0-0.1,0-0.2c0,0,0-0.1,0-0.1c0,0,0,0,0,0c0,0,0,0,0,0c0,0,0,0,0,0c0,0,0,0,0,0c0,0,0,0,0,0
	c0,0,0,0,0,0c0,0,0,0,0,0c0,0,0-0.1,0-0.1c0,0,0,0,0,0c0,0,0-0.1,0-0.1c0,0,0,0,0-0.1l0,0c0,0,0,0,0,0c0,0,0,0,0,0c0,0,0-0.1,0-0.1
	c0,0,0,0,0-0.1c0,0,0-0.1,0-0.1c0,0,0-0.1,0-0.1l0,0c0,0,0,0,0,0c0,0,0,0,0-0.1c0,0,0,0,0,0l0,0c0,0,0,0,0,0l0,0c0,0,0,0,0,0l0,0
	c0,0,0,0,0-0.1c0,0,0,0,0,0l0,0c0,0,0,0,0,0c0-0.1,0-0.1,0.1-0.2l0,0l0,0l0,0c0,0,0,0,0-0.1c0,0,0-0.1,0-0.1c0,0,0,0,0,0
	c0,0,0,0,0-0.1c0,0,0,0,0-0.1c0,0,0,0,0-0.1c0,0,0-0.1,0-0.1c0,0,0,0,0,0c0,0,0,0,0,0c0,0,0,0,0,0c0,0,0,0,0,0c0,0,0,0,0-0.1
	c0,0,0,0,0.1,0c0,0,0,0,0,0c0,0,0,0,0-0.1l0,0c0,0,0,0,0,0c0,0,0,0,0,0c0,0,0,0,0,0c0,0,0,0,0,0c0,0,0.1-0.1,0.1-0.1c0,0,0,0,0,0
	c0,0,0,0,0,0c0,0,0,0,0-0.1l0,0c0,0,0,0,0,0c0,0,0,0,0,0c0,0,0,0,0,0c0,0,0,0,0,0c0,0,0-0.1,0-0.1c0,0,0,0,0-0.1c0,0,0,0,0-0.1
	c0,0,0,0,0-0.1l0,0c0,0,0,0,0,0c0,0,0,0,0,0c0,0,0-0.1,0-0.1c0,0,0,0,0,0c0-0.1,0-0.1,0-0.1l0,0c0,0,0,0,0,0c0,0,0,0,0,0l0,0
	c0,0,0,0,0,0l0,0l0,0c0,0,0,0,0,0l0,0c0,0,0,0,0,0C289.3,285.2,289.3,285.1,289.2,285z M281.7,279.6L281.7,279.6
	C281.7,279.6,281.7,279.6,281.7,279.6C281.7,279.6,281.7,279.6,281.7,279.6c0,0.1,0,0.1,0.1,0c0,0,0,0,0,0c0,0,0,0,0,0s0,0,0,0l0,0
	c0,0,0,0,0,0c0,0,0,0,0,0c0,0,0,0,0,0c0,0,0,0,0,0c0,0,0,0,0,0c0,0,0,0,0,0c0,0,0,0,0.1,0c0,0,0,0,0,0c0,0,0.1,0,0.1,0c0,0,0,0,0,0
	c0,0,0,0,0,0c0,0,0,0,0,0c0,0,0,0,0,0c0,0,0,0,0,0c0,0,0,0,0,0c0,0,0,0,0,0l0,0c0,0,0,0,0,0c0,0,0,0,0,0c0,0,0,0,0,0l0,0
	c0,0,0,0,0,0c0.1,0,0.1,0,0.1,0.1l0,0c0,0,0,0,0,0c0,0,0.1,0,0.1,0l0,0c0,0,0,0,0,0c0,0,0,0,0,0c0,0,0,0,0,0c0,0,0,0,0,0
	c0,0,0,0,0,0c0,0,0,0,0,0c0,0,0,0,0.1,0c0,0,0,0,0,0c0,0,0,0,0,0l0,0c0,0,0,0,0,0c0,0,0,0,0,0l0,0c0,0,0,0,0,0c0,0,0,0,0,0l0,0
	c0,0,0,0,0,0l0,0l0,0c0,0,0,0,0,0c0,0,0,0,0.1,0c0,0,0,0,0,0c0,0,0,0,0,0c0,0,0,0,0,0c0,0,0,0,0,0c0,0,0,0,0.1,0l0,0l0,0
	c0,0,0,0,0,0c0,0,0,0,0,0c0,0,0,0,0,0c0.1,0.1,0.2,0.1,0.2,0.2l0,0c0,0,0,0,0,0c0,0,0,0,0,0c0,0,0,0,0,0c0,0,0,0.1,0.1,0.1
	c0,0,0,0.1,0.1,0.1c0,0,0.1,0.1,0.1,0.1c0,0,0,0.1,0.1,0.1l0,0c0,0,0,0,0,0c0,0,0,0,0,0l0,0c0.1,0.1,0.2,0.2,0.3,0.3l0,0
	c0,0,0,0,0,0c0,0,0,0,0,0c0,0,0,0,0,0l0,0c0,0,0,0,0,0c0,0,0,0,0,0c0,0,0,0,0,0c0,0,0,0,0,0l0,0c0,0,0,0,0,0c0,0,0,0,0,0l0,0
	c0,0,0,0,0,0c0,0,0,0,0,0.1c0,0,0,0,0,0.1c0,0,0,0,0,0c0,0,0,0,0,0c0,0,0,0,0,0l0,0c0,0,0,0,0,0c0,0,0,0,0,0c0,0,0,0,0,0
	c0,0,0,0,0,0c0,0,0,0,0,0l0,0c0,0,0,0,0,0l0,0c0,0,0,0,0,0.1c0,0,0,0,0,0c0,0,0,0,0,0l0,0c0,0,0,0,0,0c0,0,0,0,0,0.1s0,0,0,0l0,0
	c0,0,0,0,0,0c0,0,0,0,0,0l0,0l0,0l0,0l0,0l0,0c0,0,0,0,0,0s0,0,0,0c0,0,0,0,0,0l0,0c0,0,0,0,0,0l0,0l0,0c0,0,0,0,0,0c0,0,0,0,0,0
	c0,0,0,0,0,0c0,0,0,0,0,0l0,0l0,0c0,0,0,0,0,0.1l0,0c0,0,0,0,0,0l0,0c0,0,0,0,0,0c0,0,0,0,0,0.1c0,0,0,0,0,0l0,0c0,0,0,0,0,0.1l0,0
	l0,0c0,0,0,0,0,0l0,0c0,0,0,0,0,0c0,0,0,0,0,0l0,0l0,0c0,0,0,0.1,0,0.1c0,0,0,0,0,0c0,0,0,0,0,0c0,0,0,0,0,0c0,0,0,0,0,0.1
	c0,0,0,0,0,0l0,0c0,0,0,0,0,0c0,0,0,0.1,0,0.1c0,0,0,0,0,0c0,0,0,0,0,0.1c0,0,0,0,0,0c0,0,0,0,0,0l0,0c0,0,0,0,0,0.1c0,0,0,0,0,0.1
	l0,0c0,0,0,0,0,0l0,0c0,0,0,0,0,0c0,0,0,0,0,0.1c0,0,0,0.1,0,0.1c0,0,0,0,0-0.1c0,0,0,0,0,0c0,0,0,0,0,0.1l0,0c0,0,0,0.1,0,0.1
	c0,0,0,0,0,0c0,0,0,0,0,0c0,0,0,0,0,0.1c0,0,0,0.1,0,0.1c0,0,0,0,0,0.1c0,0,0,0,0,0.1c0,0,0,0,0,0.1c0,0,0,0,0,0.1c0,0,0,0.1,0,0.1
	c0,0,0,0,0,0c0,0,0,0,0,0c0,0,0,0,0,0c0,0,0,0,0,0c0,0,0,0,0.1,0c0,0,0,0,0,0s0,0,0,0c0.1,0,0.1,0,0.2,0c0,0,0.1,0,0.1,0
	c0,0,0,0,0,0l0,0c0,0,0,0,0.1,0l0,0l0,0l0,0c0,0,0,0,0,0l0,0c0,0,0,0,0,0l0,0c0,0,0,0,0.1,0c0,0,0,0,0,0c0,0,0.1,0,0.1,0
	c0,0,0,0,0,0l0,0c0,0,0.1,0,0.1,0c0,0,0,0,0,0l0,0c0,0,0,0,0,0c0,0,0.1,0,0.1,0c0,0,0.1,0,0.1,0c0,0,0.1,0,0.1,0c0,0,0.1,0,0.1,0
	c0,0,0.1,0,0.1,0c0,0,0.1,0,0.1,0c0,0,0,0,0,0c0,0,0,0,0,0s0,0,0.1,0c0,0,0,0,0,0c0,0,0,0,0,0l0,0c0,0,0,0,0,0c0,0,0,0,0,0
	c0,0,0,0,0,0.1c0,0,0,0,0,0c0,0,0,0,0,0l0,0c0,0,0,0,0,0c0,0,0,0,0,0c0,0,0,0,0,0l0,0c0,0,0,0.1,0,0.1c0,0,0,0,0,0l0,0c0,0,0,0,0,0
	c0,0,0,0,0,0c0,0,0,0,0,0c0,0,0,0,0,0s0,0,0,0c0,0,0,0,0,0c0,0,0,0,0,0.1c0,0,0,0,0,0l0,0c0,0,0,0,0,0c-0.1,0.2-0.2,0.3-0.2,0.5
	c0,0,0,0,0,0.1c0,0,0,0,0,0c0,0,0,0,0,0c0,0,0,0.1,0,0.1l0,0c0,0,0,0,0,0c0,0.1,0,0.1,0,0.1l0,0.1c0,0,0,0,0,0c0,0,0,0.1,0,0.1
	c0,0,0,0,0,0s0,0,0,0c0,0,0,0.1,0,0.1c0,0,0,0,0,0.1l0,0c0,0,0,0,0,0c0,0,0,0.1,0,0.1c0,0,0,0,0,0.1l0,0c0,0,0,0,0,0.1
	c0,0,0,0.1,0,0.1c0,0,0,0.1,0,0.1c0,0,0,0,0,0s0,0,0,0c0,0,0,0,0,0.1c0,0,0,0.1,0,0.1c0,0,0,0,0,0.1l0,0c0,0,0,0,0,0.1c0,0,0,0,0,0
	c0,0,0,0,0,0c0,0,0,0.1,0,0.1c0,0,0,0.1,0,0.1c0,0,0,0.1,0,0.1c0,0,0,0.1,0,0.1c0,0,0,0,0,0.1c0,0,0,0.1,0,0.1c0,0,0,0,0,0.1
	c0,0,0,0.1,0,0.1c0,0,0,0,0,0.1l0,0c0,0,0,0,0,0.1c0,0,0,0,0,0.1c0,0,0,0,0,0c0,0,0,0,0,0c0,0,0,0.1,0,0.1c0,0,0,0,0,0l0,0
	c0,0,0,0.1,0,0.1l0,0c0,0,0,0,0,0c0,0,0,0,0,0.1c0,0,0,0,0,0.1c0,0,0,0-0.1-0.1l0,0c0,0,0,0,0,0c0,0,0,0,0,0c0,0,0,0,0,0s0,0,0,0
	c0,0-0.1,0-0.1,0c0,0,0,0-0.1,0c0,0,0,0,0,0c0,0,0,0,0,0c0,0,0,0,0,0c0,0,0,0,0,0c0,0,0,0,0,0c0,0,0,0,0,0l0,0c0,0,0,0,0,0l0,0
	c0,0,0,0,0,0c0,0-0.1,0-0.1,0c0,0,0,0-0.1,0c0,0,0,0,0,0s0,0,0,0l0,0l0,0c0,0,0,0,0,0c0,0,0,0,0,0l0,0c0,0-0.1,0-0.1-0.1
	s-0.1,0-0.1,0s-0.1,0-0.1,0c0,0-0.1,0-0.1,0l0,0c0,0,0,0-0.1,0l0,0c0,0,0,0,0,0c0,0,0,0,0,0c0,0-0.1,0-0.1,0c0,0,0,0,0,0
	c0,0,0,0,0,0c0,0,0,0-0.1,0l0,0l0,0c0,0,0,0-0.1,0c0,0,0,0-0.1,0c0,0,0,0,0,0c0,0,0,0,0,0c0,0,0,0,0,0c0,0,0,0,0,0l0,0c0,0,0,0,0,0
	c0,0,0,0-0.1,0l0,0c0,0-0.1,0-0.1,0c0,0-0.1,0-0.1,0c0,0,0,0-0.1,0c0,0,0,0,0,0l0,0c0,0,0,0,0,0l0,0l0,0c0,0,0,0-0.1,0
	c0,0-0.1,0-0.1,0c0,0,0,0-0.1,0c0,0,0,0,0,0c0,0,0,0,0,0l0,0c0,0,0,0-0.1,0l0,0c0,0,0,0,0,0c0,0-0.1,0-0.1,0c0,0-0.1,0-0.1,0
	c0,0,0,0,0,0c0,0,0,0,0,0c0,0,0,0,0,0l0,0l0,0c0,0,0,0,0,0c0,0,0,0,0,0l0,0c0,0,0,0,0,0c0,0,0,0-0.1,0c0,0,0,0,0,0c0,0,0,0,0,0
	c-0.1,0-0.2,0-0.2,0c0,0,0,0,0,0c0,0,0,0,0,0c0,0-0.1,0-0.1,0c0,0,0,0,0.1,0l0,0l0,0l0,0c0,0,0,0,0,0s0,0,0,0c0,0,0,0,0,0
	c0,0,0,0,0.1,0c0,0,0,0,0.1,0c0,0,0,0,0.1,0c0,0,0,0,0,0c0,0,0,0,0,0c0,0,0.1,0,0.1,0c0,0,0,0,0,0l0,0l0,0c0,0,0,0,0.1,0
	c0,0,0,0,0,0l0,0c0.1,0,0.1,0,0.1,0c0,0,0,0,0,0c0,0,0,0,0.1,0l0,0l0,0c0,0,0,0,0,0c0,0,0.1,0,0.1,0c0,0,0.1,0,0.1,0l0,0l0,0
	c0,0,0,0,0,0c0,0,0.1,0,0.1-0.1c0,0,0,0,0,0c0,0,0,0,0-0.1c0,0,0,0,0,0c0,0,0,0,0,0l0,0l0,0c0,0,0,0,0-0.1c0,0,0,0,0,0c0,0,0,0,0,0
	l0,0c0,0,0,0,0,0c0,0,0,0,0,0l0,0c0,0,0,0,0,0l0,0l0,0l0,0c0,0,0,0,0,0l0,0l0,0c0,0,0,0,0-0.1l0,0l0,0c0-0.1,0-0.1,0-0.2
	c0,0,0-0.1,0-0.1c0,0,0,0,0,0c0,0,0,0,0,0l0-0.1c0,0,0,0,0-0.1c0,0,0,0,0,0l0,0c0,0,0,0,0,0c0,0,0,0,0-0.1c0,0,0,0,0,0
	c0,0,0,0,0-0.1l0,0c0,0,0,0,0,0c0,0,0-0.1,0-0.1c0,0,0,0-0.1-0.1l0,0c0,0,0,0,0,0c0,0,0,0,0,0c0,0,0,0,0,0c0,0,0,0,0,0l0,0
	c0,0,0,0,0,0l0,0c0,0,0,0,0-0.1l0,0l0,0l0,0c0,0,0,0,0,0l0,0c0,0,0,0,0,0c0,0,0,0,0,0c0,0,0,0,0,0c0,0,0,0,0,0l0,0l0,0c0,0,0,0,0,0
	c0,0,0,0,0,0c0,0,0,0,0,0c0,0,0-0.1,0-0.1c0,0,0,0,0,0c0,0,0,0,0,0c0,0,0,0,0,0c0,0,0,0,0,0c0,0,0,0,0,0c0,0,0,0,0-0.1l0,0l0,0l0,0
	c0,0,0,0,0,0c0,0,0,0,0,0c0,0,0,0,0,0l0,0c0,0,0-0.1,0-0.1c0,0,0-0.1,0-0.1c0,0,0,0,0,0l0,0c0,0,0,0,0-0.1c0,0,0-0.1,0-0.1
	c0,0,0,0,0,0l0,0c0,0,0,0,0,0c0,0,0,0,0,0c0,0,0,0,0,0l0,0c0,0,0,0,0,0s0,0,0,0c0,0,0,0,0,0c0,0,0,0,0,0s0,0,0,0c0,0,0,0,0,0l0,0
	l0,0c0,0,0,0,0,0c0,0,0,0,0,0c0,0,0-0.1,0-0.1c0,0,0,0,0,0l0,0c0,0,0,0,0,0c0,0,0,0,0,0c0,0,0,0,0,0l0,0l0,0l0,0c0,0,0,0,0,0l0,0
	c0,0,0-0.1,0-0.1c0,0,0-0.1,0-0.1c0,0,0,0,0,0c0,0,0,0,0,0l0,0c0,0,0,0,0,0c0,0,0-0.1,0-0.1c0,0,0,0,0,0c0,0,0,0,0,0c0,0,0,0,0,0
	c0,0,0,0,0,0l0,0l0,0c0,0,0,0,0,0c0,0,0,0,0,0l0,0l0,0c0,0,0,0,0,0c0,0,0,0,0,0l0,0c0,0,0,0,0,0c0,0,0-0.1-0.1-0.1l0,0c0,0,0,0,0,0
	l0,0c0,0,0,0,0-0.1c0,0-0.1-0.1-0.1-0.1l0,0l0,0c0,0,0,0,0,0l0,0c0,0,0,0,0,0s0,0,0,0c0,0,0,0,0,0c0,0,0,0,0,0s0,0-0.1,0l0,0
	c0,0,0,0,0,0c0,0,0,0,0,0c0,0,0,0,0,0l0,0c0,0,0,0,0-0.1c0,0,0,0,0-0.1c0,0,0,0,0,0s0,0,0,0c0,0,0,0,0,0c0,0,0,0,0,0l0,0
	c0,0,0,0,0,0c0,0,0,0,0-0.1c0,0,0,0,0,0l0,0c0,0,0,0,0,0l0,0l0,0c0,0,0,0,0,0c0,0,0,0,0,0s0,0,0,0c0,0,0,0,0,0c0,0,0,0,0,0
	c0,0,0,0,0,0l0,0c0,0,0,0-0.1-0.1c0,0,0,0,0,0c0,0,0-0.1-0.1-0.1l0,0c0,0,0,0,0,0l0,0l0,0c0,0,0,0,0,0c0,0,0,0,0,0c0,0,0,0,0,0
	c0,0,0,0,0,0l0,0c0,0,0,0-0.1,0c0,0,0,0,0,0c0,0,0,0,0-0.1c0,0,0,0,0,0l0,0c0,0,0,0,0,0c0,0,0,0,0,0c0,0,0-0.1-0.1-0.1
	c0,0-0.1,0-0.1,0c0,0,0,0,0,0c0,0,0,0,0,0c0,0,0,0,0,0c0,0,0,0,0,0c0,0,0,0,0,0c0,0,0,0,0,0c0,0-0.1-0.1-0.1-0.1c0,0,0,0,0,0
	c0,0,0,0-0.1,0c0,0-0.1,0-0.1-0.1c0,0,0,0-0.1,0c0,0,0,0,0,0c0,0,0,0,0,0c0,0,0,0,0,0c0,0,0,0-0.1,0l0,0c0,0,0,0,0,0l0,0l0,0l0,0
	c0,0,0,0,0,0c0,0-0.1,0-0.1,0c0,0,0,0,0,0c0,0,0,0,0,0c0,0,0,0,0,0c0,0,0,0,0,0l0,0c0,0,0,0,0,0c0,0-0.1,0-0.1,0c0,0,0,0,0,0
	c0,0,0,0,0,0c0,0,0,0-0.1,0c0,0-0.1,0-0.1,0c0,0-0.1,0-0.1,0c0,0,0,0,0,0c0,0,0,0,0,0c0,0-0.1,0-0.1,0l0,0c0,0,0,0-0.1,0l0,0
	c0,0,0,0-0.1,0c-0.1,0-0.1,0-0.1,0c0,0,0,0-0.1,0c-0.3,0-0.5-0.1-0.7-0.1c0,0,0-0.1,0-0.1l0-0.1c0,0,0,0,0,0l0,0c0,0,0,0,0-0.1
	c0,0,0,0,0,0c0,0,0,0,0,0c0,0,0,0,0,0c0,0,0,0,0,0c0,0,0,0,0-0.1c0,0,0,0,0,0c0,0,0,0,0-0.1c0,0,0-0.1,0-0.1c0-0.1,0-0.2,0.1-0.2
	c0,0,0,0,0,0c0,0,0,0,0,0c0,0,0-0.1,0-0.1c0,0,0,0,0,0l0,0c0,0,0,0,0,0c0,0,0,0,0-0.1c0,0,0,0,0-0.1c0,0,0,0,0-0.1c0,0,0,0,0,0l0,0
	c0,0,0,0,0,0c0,0,0-0.1,0-0.1c0,0,0,0,0-0.1c0,0,0,0,0,0c0,0,0-0.1,0-0.1c0,0,0,0,0,0c0,0,0,0,0,0c0,0,0,0,0-0.1l0,0c0,0,0,0,0-0.1
	c0,0,0,0,0-0.1c0,0,0-0.1,0-0.1l0,0c0.1,0,0.1,0,0.1,0c0,0,0.1,0,0.1,0c0,0,0,0,0,0c0,0,0,0,0,0c0.1,0,0.1,0,0.1,0c0,0,0,0,0.1,0
	c0,0,0,0,0,0l0.1,0l0,0c0,0,0,0,0,0c0,0,0,0,0,0c0,0,0.1,0,0.1,0l0.1,0c0.1,0,0.1,0,0.2,0c0,0,0,0,0,0s0,0,0.1,0c0,0,0,0,0,0
	c0,0,0,0,0.1,0c0,0,0,0,0.1,0c0,0,0.1,0,0.1,0c0,0,0,0,0,0l0,0c0,0,0,0,0,0c0,0,0,0,0.1,0c0,0,0,0,0,0c0,0,0,0,0,0c0,0,0,0,0,0
	c0,0,0,0,0,0c0,0,0.1,0,0.1,0c0,0,0,0,0,0l0,0c0,0,0,0,0,0c0,0,0,0,0,0c0,0,0,0,0.1,0c0,0,0,0,0,0c0,0,0,0,0,0c0,0,0,0,0.1,0
	C281.6,279.5,281.6,279.6,281.7,279.6C281.6,279.6,281.6,279.6,281.7,279.6L281.7,279.6C281.7,279.6,281.7,279.6,281.7,279.6
	L281.7,279.6L281.7,279.6z M284.5,285.9L284.5,285.9L284.5,285.9L284.5,285.9L284.5,285.9z M288.2,287.5L288.2,287.5L288.2,287.5
	L288.2,287.5z"/>
<g>
</g>
<g>
</g>
<g>
</g>
<g>
</g>
<g>
</g>
<g>
</g>
<g>
</g>
<g>
</g>
<g>
</g>
<g>
</g>
<g>
</g>
<g>
</g>
<g>
</g>
<g>
</g>
<g>
</g>
</svg>
